<?xml version="1.0" encoding="UTF-8" standalone="no"?>
<svg
   xmlns:dc="http://purl.org/dc/elements/1.1/"
   xmlns:cc="http://creativecommons.org/ns#"
   xmlns:rdf="http://www.w3.org/1999/02/22-rdf-syntax-ns#"
   xmlns:svg="http://www.w3.org/2000/svg"
   xmlns="http://www.w3.org/2000/svg"
   version="1.1"
   id="svg6441"
   xml:space="preserve"
   width="169.8208"
   height="84.37458"
   viewBox="0 0 169.8208 84.37458">




  <metadata
   id="metadata6447">
    <rdf:RDF>
      <cc:Work
   rdf:about="">
        <dc:format>image/svg+xml</dc:format>





        <dc:type
   rdf:resource="http://purl.org/dc/dcmitype/StillImage" />





        <dc:title></dc:title>





      </cc:Work>





    </rdf:RDF>





  </metadata>





  <defs
   id="defs6445">
    




  
      




    
        




      
          




        
            




            




            




            




            




            




            




            




            




            




            




            




            




          
              
            
              




            
              




            
                




              
                  




                
                    




                    




                  
                      




                      




                      




                    
                        




                      
                          



                          



                          



                          



                        </defs>





  <path
   id="path6544"
   style="color:#000000;font-style:normal;font-variant:normal;font-weight:normal;font-stretch:normal;font-size:medium;line-height:normal;font-family:sans-serif;font-variant-ligatures:normal;font-variant-position:normal;font-variant-caps:normal;font-variant-numeric:normal;font-variant-alternates:normal;font-variant-east-asian:normal;font-feature-settings:normal;font-variation-settings:normal;text-indent:0;text-align:start;text-decoration:none;text-decoration-line:none;text-decoration-style:solid;text-decoration-color:#000000;letter-spacing:normal;word-spacing:normal;text-transform:none;writing-mode:lr-tb;direction:ltr;text-orientation:mixed;dominant-baseline:auto;baseline-shift:baseline;text-anchor:start;white-space:normal;shape-padding:0;shape-margin:0;inline-size:0;clip-rule:nonzero;display:inline;overflow:visible;visibility:visible;opacity:1;isolation:auto;mix-blend-mode:normal;color-interpolation:sRGB;color-interpolation-filters:linearRGB;solid-color:#000000;solid-opacity:1;vector-effect:none;fill:#283891;fill-opacity:1;fill-rule:nonzero;stroke:none;stroke-width:2.65673;stroke-linecap:butt;stroke-linejoin:miter;stroke-miterlimit:10;stroke-dasharray:none;stroke-dashoffset:0;stroke-opacity:1;color-rendering:auto;image-rendering:auto;shape-rendering:auto;text-rendering:auto;enable-background:accumulate;stop-color:#000000;stop-opacity:1"
   d="m 122.95765,27.291308 a 3.9851067,3.9851067 0 0 0 -0.66797,0.06055 3.9851067,3.9851067 0 0 0 -3.23437,4.617187 c 0.72528,4.113382 2.8662,7.088823 5.36133,9.416016 1.40485,-1.150405 2.83537,-2.096911 4.16211,-2.978516 0.95386,-0.633848 1.78311,-1.194955 2.57226,-1.746093 -2.2556,-1.749068 -3.79651,-3.515325 -4.24805,-6.076172 a 3.9851067,3.9851067 0 0 0 -3.94531,-3.292969 z m 18.59766,0 a 3.9851067,3.9851067 0 0 0 -3.90235,3.292969 c -0.68863,3.905518 -3.87506,5.964118 -8.33789,8.929687 -2.23141,1.482785 -4.66977,3.094172 -6.72461,5.464844 -2.05483,2.370671 -3.5957,5.68765 -3.5957,9.544922 0,3.914713 1.65985,7.257244 3.80664,9.603516 0.55117,0.602377 1.12686,1.153663 1.7168,1.666015 1.91599,-1.620764 3.91647,-2.901681 5.57812,-4.005859 0.42655,-0.28344 0.82228,-0.555305 1.21289,-0.826172 -1.0542,-0.757533 -1.96729,-1.491936 -2.62695,-2.212891 -1.18153,-1.291322 -1.7168,-2.314796 -1.7168,-4.224609 0,-1.967261 0.53042,-3.03856 1.64649,-4.326172 1.11607,-1.287611 2.9502,-2.608202 5.11523,-4.046875 4.33006,-2.877347 10.44121,-6.614985 11.77539,-14.181641 a 3.9851067,3.9851067 0 0 0 -3.23437,-4.617187 3.9851067,3.9851067 0 0 0 -0.71289,-0.06055 z m -12.68164,4.982422 c 0.50757,0.959817 1.27723,1.808854 2.26172,2.65625 h 2.28515 c 0.98478,-0.847567 1.756,-1.69624 2.26367,-2.65625 z m 11.28125,10.878906 c -1.95073,1.667465 -3.99836,2.97913 -5.69336,4.105469 -0.3654,0.242806 -0.69973,0.475276 -1.03907,0.708984 1.01796,0.76313 1.89346,1.503661 2.52344,2.230469 1.11607,1.287612 1.64453,2.358911 1.64453,4.326172 0,1.967256 -0.52846,3.034655 -1.64453,4.322266 -1.11607,1.287611 -2.9502,2.608199 -5.11523,4.046874 -4.33006,2.877351 -10.44121,6.618889 -11.77539,14.185547 a 3.9851067,3.9851067 0 0 0 3.23437,4.615235 3.9851067,3.9851067 0 0 0 0.63281,0.05859 3.9851067,3.9851067 0 0 0 3.98047,-3.291016 c 0.68864,-3.905527 3.87702,-5.964116 8.33985,-8.929688 2.23141,-1.482785 4.66782,-3.096126 6.72265,-5.466796 2.05484,-2.370671 3.59766,-5.683747 3.59766,-9.541016 a 3.9851067,3.9851067 0 0 0 -0.0176,-0.369141 3.9851067,3.9851067 0 0 0 -0.002,-0.01563 c -0.0998,-3.690796 -1.59289,-6.869789 -3.57813,-9.160156 -0.57712,-0.665836 -1.18621,-1.266154 -1.81054,-1.826172 z m -10.33594,7.716797 c -0.0614,0.06593 -0.14501,0.136382 -0.20117,0.201172 -0.73793,0.851353 -1.11915,1.468746 -1.25782,2.455078 h 7.8379 c -0.13864,-0.986337 -0.51988,-1.603723 -1.25782,-2.455078 -0.0561,-0.06472 -0.13988,-0.135316 -0.20117,-0.201172 z m -1.45899,4.648437 c 0.13807,0.98932 0.51863,1.606176 1.25782,2.458985 0.0551,0.06353 0.13719,0.132652 0.19726,0.197265 h 4.92774 c 0.06,-0.06454 0.14226,-0.133805 0.19726,-0.197265 0.7392,-0.852811 1.11978,-1.469662 1.25782,-2.458985 z m 12.05274,11.921876 c -1.49123,1.253714 -3.02148,2.260863 -4.43359,3.199218 -0.85464,0.567913 -1.58202,1.064973 -2.30469,1.564453 0.64697,0.493631 1.24866,0.984841 1.73437,1.476563 1.3431,1.359716 2.03048,2.531227 2.19727,4.4375 a 3.9851067,3.9851067 0 0 0 3.92969,3.634766 3.9851067,3.9851067 0 0 0 0.38867,-0.01172 3.9851067,3.9851067 0 0 0 3.62304,-4.31836 c -0.34087,-3.896033 -2.22969,-7.076984 -4.46874,-9.34375 -0.21843,-0.221115 -0.44239,-0.430491 -0.66602,-0.63867 z m -9.2793,6.677734 c -0.98347,0.847242 -1.75255,1.696807 -2.25976,2.65625 h 6.81054 c -0.50712,-0.959273 -1.27655,-1.809158 -2.25976,-2.65625 z m 29.74142,8.036598 q -2.97684,0 -4.96138,-1.653798 -1.87431,-1.764052 -1.87431,-4.961394 V 9.7177242 q 0,-3.1973422 1.87431,-4.8511409 1.98454,-1.6537973 4.96138,-1.6537973 2.97684,0 4.9614,1.6537973 1.98455,1.6537987 1.98455,4.8511409 V 75.538886 q 0,3.197342 -1.98455,4.961394 -1.98456,1.653798 -4.9614,1.653798 z m -28.0043,-65.490402 q -3.74862,0 -5.95368,-1.984557 -2.20507,-2.094812 -2.20507,-5.4024078 0,-3.3075959 2.20507,-5.2921532 2.20506,-1.9845573 5.95368,-1.9845573 3.63834,0 5.84341,1.9845573 2.31532,1.9845573 2.31532,5.2921532 0,3.3075958 -2.20507,5.4024078 -2.20506,1.984557 -5.95366,1.984557 z m -42.998751,9.592028 q 11.245821,0 16.648231,5.622914 5.51266,5.51266 5.51266,16.86874 v 26.901781 q 0,2.976836 -1.76405,4.740887 -1.76405,1.653798 -4.85114,1.653798 -2.86659,0 -4.74089,-1.764051 -1.764046,-1.764051 -1.764046,-4.630634 v -2.425571 q -1.87431,4.299875 -5.95368,6.725446 -3.969111,2.42557 -9.261264,2.42557 -5.402407,0 -9.812535,-2.205064 -4.410129,-2.205064 -6.945952,-6.063926 -2.535824,-3.858862 -2.535824,-8.59975 0,-5.953673 2.976836,-9.371522 3.087091,-3.417849 9.922789,-4.961393 6.835699,-1.543546 18.8533,-1.543546 h 2.75633 v -2.535824 q 0,-5.402406 -2.31532,-7.827977 -2.31532,-2.535824 -7.497218,-2.535824 -3.197343,0 -6.504938,0.992279 -3.307596,0.882027 -7.827978,2.646077 -2.866584,1.433292 -4.189621,1.433292 -1.984558,0 -3.307597,-1.433292 -1.212785,-1.433292 -1.212785,-3.748609 0,-1.874304 0.882026,-3.197343 0.992279,-1.433292 3.197343,-2.646076 3.858862,-2.094811 9.151016,-3.307597 5.402406,-1.212785 10.584307,-1.212785 z M 86.45395,72.451796 q 5.512664,0 8.930514,-3.638356 3.5281,-3.748609 3.5281,-9.592028 v -2.315317 h -1.98456 q -7.386966,0 -11.466335,0.661519 -4.079368,0.661518 -5.843418,2.315317 -1.764052,1.653799 -1.764052,4.520381 0,3.528103 2.42557,5.84342 2.535824,2.205064 6.174181,2.205064 z M 33.532414,26.255704 q 18.96355,0 18.96355,22.160894 v 27.122288 q 0,3.087089 -1.874305,4.85114 -1.76405,1.764052 -4.961394,1.764052 -3.197342,0 -5.071647,-1.764052 -1.874304,-1.764051 -1.874304,-4.85114 V 48.416598 q 0,-5.84342 -2.42557,-8.489497 -2.315317,-2.756329 -7.386965,-2.756329 -5.953674,0 -9.592028,3.748609 -3.528103,3.748608 -3.528103,10.033041 v 24.586464 q 0,3.087089 -1.874304,4.85114 -1.874304,1.764052 -5.0716465,1.764052 -3.197344,0 -5.071648,-1.764052 -1.764051,-1.764051 -1.764051,-4.85114 V 9.6074712 q 0,-2.8665826 1.874304,-4.6306345 1.984558,-1.7640507 5.071648,-1.7640507 3.0870885,0 4.9613935,1.6537973 1.874304,1.6537987 1.874304,4.5203809 V 35.075961 q 2.75633,-4.299875 7.276711,-6.50494 4.630634,-2.315317 10.474055,-2.315317 z" />





</svg>
