<?xml version="1.0" encoding="UTF-8" standalone="no"?>
<svg
   xmlns:dc="http://purl.org/dc/elements/1.1/"
   xmlns:cc="http://creativecommons.org/ns#"
   xmlns:rdf="http://www.w3.org/1999/02/22-rdf-syntax-ns#"
   xmlns:svg="http://www.w3.org/2000/svg"
   xmlns="http://www.w3.org/2000/svg"
   version="1.1"
   id="svg6223"
   xml:space="preserve"
   width="163.59578"
   height="60.473446"
   viewBox="0 0 163.59578 60.473446">




  <metadata
   id="metadata6229">
    <rdf:RDF>
      <cc:Work
   rdf:about="">
        <dc:format>image/svg+xml</dc:format>





        <dc:type
   rdf:resource="http://purl.org/dc/dcmitype/StillImage" />





        <dc:title></dc:title>





      </cc:Work>





    </rdf:RDF>





  </metadata>





  <defs
   id="defs6227">
    




  
      




    
        




      
          




        
            




            




            




            




            




            




            




            




            




            




            




            




          
              
            
              




            
              




            
                




              
                  




                
                    




                    




                  
                      




                      




                      




                    
                        




                      </defs>





  <path
   id="path6313"
   style="color:#000000;font-style:normal;font-variant:normal;font-weight:normal;font-stretch:normal;font-size:medium;line-height:normal;font-family:sans-serif;font-variant-ligatures:normal;font-variant-position:normal;font-variant-caps:normal;font-variant-numeric:normal;font-variant-alternates:normal;font-variant-east-asian:normal;font-feature-settings:normal;font-variation-settings:normal;text-indent:0;text-align:start;text-decoration:none;text-decoration-line:none;text-decoration-style:solid;text-decoration-color:#000000;letter-spacing:normal;word-spacing:normal;text-transform:none;writing-mode:lr-tb;direction:ltr;text-orientation:mixed;dominant-baseline:auto;baseline-shift:baseline;text-anchor:start;white-space:normal;shape-padding:0;shape-margin:0;inline-size:0;clip-rule:nonzero;display:inline;overflow:visible;visibility:visible;opacity:1;isolation:auto;mix-blend-mode:normal;color-interpolation:sRGB;color-interpolation-filters:linearRGB;solid-color:#000000;solid-opacity:1;vector-effect:none;fill:#283891;fill-opacity:1;fill-rule:nonzero;stroke:none;stroke-width:2.65673;stroke-linecap:butt;stroke-linejoin:miter;stroke-miterlimit:10;stroke-dasharray:none;stroke-dashoffset:0;stroke-opacity:1;color-rendering:auto;image-rendering:auto;shape-rendering:auto;text-rendering:auto;enable-background:accumulate;stop-color:#000000;stop-opacity:1"
   d="m 5.9609371,4.0118428 a 3.9851067,3.9851067 0 0 0 -0.667969,0.060547 3.9851067,3.9851067 0 0 0 -3.230468,4.617187 c 0.725185,4.1128132 2.864693,7.0889632 5.359375,9.4160162 1.405599,-1.150405 2.8373539,-2.096911 4.1640619,-2.978516 0.953866,-0.633848 1.783118,-1.194955 2.572266,-1.746093 C 11.9026,11.631916 10.361694,9.8656598 9.9101561,7.3048117 A 3.9851067,3.9851067 0 0 0 5.9609371,4.0118428 Z m 18.5976559,0 a 3.9851067,3.9851067 0 0 0 -3.90039,3.2929688 c -0.68863,3.9055174 -3.875069,5.9641184 -8.337891,8.9296874 -2.231411,1.482785 -4.6697729,3.094172 -6.7246089,5.464844 -2.054837,2.370671 -3.5957034,5.68765 -3.5957034,9.544922 0,3.914713 1.6618024,7.257246 3.8085934,9.603516 0.550531,0.601685 1.125805,1.152209 1.714844,1.664062 1.915356,-1.619924 3.9170789,-2.90013 5.5781249,-4.003906 0.426511,-0.283419 0.820188,-0.557276 1.210938,-0.828125 -1.052182,-0.756659 -1.964102,-1.490764 -2.623047,-2.210938 -1.181535,-1.291322 -1.7187499,-2.314796 -1.7187499,-4.224609 0,-1.967261 0.5323689,-3.03856 1.6484369,-4.326172 1.116069,-1.287611 2.946299,-2.608202 5.111328,-4.046875 4.330058,-2.877347 10.443173,-6.614984 11.777344,-14.1816412 A 3.9851067,3.9851067 0 0 0 25.27539,4.0723897 3.9851067,3.9851067 0 0 0 24.558593,4.0118428 Z m -12.68164,4.982422 c 0.507673,0.96001 1.278892,1.8086842 2.263672,2.6562502 h 2.287109 c 0.98478,-0.847567 1.755999,-1.6962402 2.263672,-2.6562502 z M 23.160156,19.871218 c -1.951352,1.668318 -3.999706,2.980682 -5.695313,4.107422 -0.365242,0.242706 -0.697928,0.475369 -1.037109,0.708984 1.016842,0.76313 1.891506,1.503661 2.521484,2.230469 1.116068,1.287612 1.648438,2.358909 1.648438,4.326172 0,1.967257 -0.53237,3.034655 -1.648438,4.322266 -1.116067,1.287611 -2.946299,2.608199 -5.111328,4.046874 -4.3300569,2.877351 -10.4412129,6.61889 -11.7753899,14.185547 a 3.9851067,3.9851067 0 0 0 3.230468,4.615235 3.9851067,3.9851067 0 0 0 0.636719,0.05859 3.9851067,3.9851067 0 0 0 3.980469,-3.291016 C 10.598791,51.276233 13.78718,49.217647 18.25,46.252073 c 2.231409,-1.482785 4.667821,-3.096126 6.722656,-5.466796 2.054834,-2.370671 3.59375,-5.683747 3.59375,-9.541016 a 3.9851067,3.9851067 0 0 0 -0.01953,-0.40625 c -0.10487,-3.681567 -1.592867,-6.852774 -3.57422,-9.138668 -0.577764,-0.666568 -1.187442,-1.267592 -1.8125,-1.828125 z m -10.337891,7.71875 c -0.06129,0.06586 -0.145077,0.136455 -0.201172,0.201172 -0.737931,0.851354 -1.117219,1.468746 -1.255859,2.455078 h 7.837891 c -0.13864,-0.986333 -0.517929,-1.603725 -1.25586,-2.455078 -0.05609,-0.06472 -0.139863,-0.135316 -0.201172,-0.201172 z m -1.457031,4.648437 c 0.138224,0.988379 0.517064,1.606634 1.255859,2.458985 0.05501,0.06346 0.137262,0.132726 0.197266,0.197265 H 17.75 c 0.06002,-0.06454 0.142259,-0.133805 0.197265,-0.197265 0.738795,-0.852351 1.117636,-1.470608 1.25586,-2.458985 z m 12.048828,11.921876 c -1.490585,1.252913 -3.018225,2.261293 -4.429687,3.199218 -0.854262,0.567662 -1.582272,1.065172 -2.304688,1.564453 0.646975,0.493631 1.248664,0.984841 1.734375,1.476563 1.343095,1.359716 2.032436,2.531227 2.199219,4.4375 a 3.9851067,3.9851067 0 0 0 3.929687,3.634766 3.9851067,3.9851067 0 0 0 0.386719,-0.01172 3.9851067,3.9851067 0 0 0 3.621094,-4.31836 c -0.340871,-3.896033 -2.229693,-7.076983 -4.46875,-9.34375 -0.218746,-0.221453 -0.444026,-0.430192 -0.667969,-0.63867 z m -9.277344,6.677734 c -0.983212,0.847091 -1.752641,1.696977 -2.259765,2.65625 h 6.814453 c -0.507124,-0.959273 -1.276553,-1.809158 -2.259766,-2.65625 z m 142.605262,7.173261 q -2.0802,0 -3.467,-1.155666 -1.30976,-1.232711 -1.30976,-3.466998 V 7.3931079 q 0,-2.234288 1.30976,-3.3899533 1.3868,-1.1556666 3.467,-1.1556666 2.08019,0 3.46699,1.1556666 1.3868,1.1556653 1.3868,3.3899533 V 53.388612 q 0,2.234287 -1.3868,3.466998 -1.3868,1.155666 -3.46699,1.155666 z m -19.56929,0 q -2.0802,0 -3.467,-1.155666 -1.30975,-1.232711 -1.30975,-3.466998 V 23.649476 q 0,-2.234288 1.30975,-3.389954 1.3868,-1.155666 3.467,-1.155666 2.0802,0 3.467,1.155666 1.3868,1.155666 1.3868,3.389954 v 29.739136 q 0,2.234287 -1.3868,3.466998 -1.3868,1.155666 -3.467,1.155666 z m 0,-45.764372 q -2.61951,0 -4.1604,-1.386799 -1.54088,-1.4638442 -1.54088,-3.7751758 0,-2.3113306 1.54088,-3.6981306 Q 134.55318,2 137.17269,2 q 2.54247,0 4.08335,1.3867986 1.61794,1.3868 1.61794,3.6981306 0,2.3113316 -1.54089,3.7751758 -1.54089,1.386799 -4.1604,1.386799 z m -30.04731,6.702862 q 7.85853,0 11.6337,3.929266 3.85222,3.85222 3.85222,11.787791 v 18.798833 q 0,2.080199 -1.23271,3.312909 -1.23271,1.155666 -3.38995,1.155666 -2.00316,0 -3.31291,-1.23271 -1.23271,-1.23271 -1.23271,-3.235865 V 51.77068 q -1.30976,3.004731 -4.1604,4.699708 -2.7736,1.694977 -6.47173,1.694977 -3.775171,0 -6.856951,-1.540888 -3.08177,-1.540888 -4.853795,-4.237442 -1.772022,-2.696554 -1.772022,-6.009463 0,-4.160397 2.080199,-6.548774 2.157238,-2.388376 6.933998,-3.466997 4.776751,-1.078622 13.174591,-1.078622 h 1.92611 v -1.772021 q 0,-3.775176 -1.61793,-5.470152 -1.61794,-1.772021 -5.23902,-1.772021 -2.23429,0 -4.54562,0.693399 -2.311331,0.616356 -5.470151,1.849066 -2.00316,1.001577 -2.92769,1.001577 -1.3868,0 -2.311332,-1.001577 -0.847489,-1.001577 -0.847489,-2.619509 0,-1.309756 0.616356,-2.234288 0.6934,-1.001577 2.234285,-1.849065 2.69656,-1.463844 6.39469,-2.311332 3.775171,-0.84749 7.396261,-0.84749 z M 104.737,51.231369 q 3.85222,0 6.2406,-2.542465 2.46542,-2.61951 2.46542,-6.702862 v -1.617933 h -1.3868 q -5.16197,0 -8.01262,0.462266 -2.85064,0.462267 -4.083351,1.617932 -1.23271,1.155667 -1.23271,3.158821 0,2.465421 1.694981,4.083353 1.77202,1.540888 4.31448,1.540888 z M 67.755691,18.949766 q 13.251636,0 13.251636,15.485924 v 18.952922 q 0,2.157243 -1.309755,3.389953 -1.232711,1.232711 -3.466997,1.232711 -2.234288,0 -3.544043,-1.232711 -1.309754,-1.23271 -1.309754,-3.389953 V 34.43569 q 0,-4.083352 -1.694978,-5.932418 -1.617932,-1.92611 -5.161974,-1.92611 -4.160397,0 -6.702863,2.619509 -2.46542,2.61951 -2.46542,7.01104 v 17.180901 q 0,2.157243 -1.309755,3.389953 -1.309754,1.232711 -3.544042,1.232711 -2.234287,0 -3.544042,-1.232711 -1.232711,-1.23271 -1.232711,-3.389953 V 7.3160625 q 0,-2.0031532 1.309755,-3.2358639 1.386799,-1.2327106 3.544042,-1.2327106 2.157244,0 3.466998,1.1556666 1.309755,1.1556653 1.309755,3.1588199 V 25.113318 q 1.92611,-3.00473 5.08493,-4.545618 3.235865,-1.617934 7.319218,-1.617934 z" />





</svg>
