<?xml version="1.0" encoding="UTF-8" standalone="no"?>
<svg
   xmlns:dc="http://purl.org/dc/elements/1.1/"
   xmlns:cc="http://creativecommons.org/ns#"
   xmlns:rdf="http://www.w3.org/1999/02/22-rdf-syntax-ns#"
   xmlns:svg="http://www.w3.org/2000/svg"
   xmlns="http://www.w3.org/2000/svg"
   viewBox="0 0 64.426666 64.426666"
   height="64.426666"
   width="64.426666"
   xml:space="preserve"
   id="svg5170"
   version="1.1">
  <metadata
     id="metadata5176">
    <rdf:RDF>
      <cc:Work
         rdf:about="">
        <dc:format>image/svg+xml</dc:format>
        <dc:type
           rdf:resource="http://purl.org/dc/dcmitype/StillImage" />
        <dc:title></dc:title>
      </cc:Work>
    </rdf:RDF>
  </metadata>
  <defs
     id="defs5174" />
  <g
     transform="matrix(1.3333333,0,0,-1.3333333,0,64.426667)"
     id="g5178">
    <g
       transform="translate(72,-23.681)"
       id="g5180">
      <g
         transform="translate(-47.841,65.275)"
         id="g5182">
        <g
           id="g5184">
          <g
             id="g5186">
            <g
               id="g5188">
              <g
                 style="opacity:1"
                 id="g5235">
                <path
                   id="path5239"
                   d="M -12.703125 -41.59375 C -19.013096 -41.59375 -24.160156 -36.44669 -24.160156 -30.136719 L -24.160156 -4.7324219 C -24.160156 1.577549 -19.013096 6.7246094 -12.703125 6.7246094 L 12.703125 6.7246094 C 19.013096 6.7246094 24.160156 1.577549 24.160156 -4.7324219 L 24.160156 -30.136719 C 24.160156 -36.44669 19.013096 -41.59375 12.703125 -41.59375 L -12.703125 -41.59375 z M -12.703125 -38.605469 L 12.703125 -38.605469 C 17.397854 -38.605469 21.169922 -34.831448 21.169922 -30.136719 L 21.169922 -4.7324219 C 21.169922 -0.03769271 17.397854 3.7363281 12.703125 3.7363281 L -12.703125 3.7363281 C -17.397854 3.7363281 -21.169922 -0.03769271 -21.169922 -4.7324219 L -21.169922 -30.136719 C -21.169922 -34.831448 -17.397854 -38.605469 -12.703125 -38.605469 z "
                   style="color:#000000;font-style:normal;font-variant:normal;font-weight:normal;font-stretch:normal;font-size:medium;line-height:normal;font-family:sans-serif;font-variant-ligatures:normal;font-variant-position:normal;font-variant-caps:normal;font-variant-numeric:normal;font-variant-alternates:normal;font-variant-east-asian:normal;font-feature-settings:normal;font-variation-settings:normal;text-indent:0;text-align:start;text-decoration:none;text-decoration-line:none;text-decoration-style:solid;text-decoration-color:#000000;letter-spacing:normal;word-spacing:normal;text-transform:none;writing-mode:lr-tb;direction:ltr;text-orientation:mixed;dominant-baseline:auto;baseline-shift:baseline;text-anchor:start;white-space:normal;shape-padding:0;shape-margin:0;inline-size:0;clip-rule:nonzero;display:inline;overflow:visible;visibility:visible;isolation:auto;mix-blend-mode:normal;color-interpolation:sRGB;color-interpolation-filters:linearRGB;solid-color:#000000;solid-opacity:1;vector-effect:none;fill:#283891;fill-opacity:1;fill-rule:nonzero;stroke:none;stroke-width:2.98883;stroke-linecap:butt;stroke-linejoin:miter;stroke-miterlimit:10;stroke-dasharray:none;stroke-dashoffset:0;stroke-opacity:1.0;filter-blend-mode:normal;filter-gaussianBlur-deviation:0;color-rendering:auto;image-rendering:auto;shape-rendering:auto;text-rendering:auto;enable-background:accumulate;stop-color:#000000;stop-opacity:1;" />
              </g>
            </g>
            <g
               id="g5192" />
            <g
               id="g5196" />
            <g
               id="g5200">
              <g
                 style="opacity:1"
                 id="g5221">
                <path
                   d="m 21.253906,30.554688 c -2.575629,0 -4.65039,2.072782 -4.65039,4.648437 v 14.945313 c 0,2.575625 2.074765,4.648437 4.65039,4.648437 h 21.916016 c 2.575625,0 4.652344,-2.072812 4.652344,-4.648437 V 35.203125 c 0,-2.575655 -2.076715,-4.648438 -4.652344,-4.648437 z m 10.958985,4.449218 c 2.31096,0 4.183593,1.872621 4.183593,4.183594 0,1.584262 -0.891176,2.947837 -2.189453,3.658203 l 1.814453,5.445313 c 0.463974,1.39192 -0.349126,2.521484 -1.816406,2.521484 H 30.21875 c -1.46728,0 -2.28038,-1.129564 -1.816406,-2.521484 l 1.814453,-5.445313 c -1.298276,-0.710366 -2.189453,-2.073941 -2.189453,-3.658203 0,-2.310973 1.874587,-4.183594 4.185547,-4.183594 z m 0,-27.6972654 c -7.289176,2e-7 -13.285157,5.9940134 -13.285157,13.2832034 a 3.9851067,3.9851067 0 0 0 0,0.05078 v 9.056641 c 0.715367,-0.303431 1.502168,-0.470704 2.326172,-0.470704 h 5.646485 v -8.636718 c 0,-2.981877 2.330635,-5.3125 5.3125,-5.3125 2.981864,0 5.3125,2.330623 5.3125,5.3125 a 3.9851067,3.9851067 0 0 0 3.986328,3.988281 3.9851067,3.9851067 0 0 0 3.984375,-3.988281 c 0,-7.28919 -5.994028,-13.2832034 -13.283203,-13.2832034 z"
                   transform="matrix(0.75000002,0,0,-0.75000002,-24.159,6.7260015)"
                   style="color:#000000;font-style:normal;font-variant:normal;font-weight:normal;font-stretch:normal;font-size:medium;line-height:normal;font-family:sans-serif;font-variant-ligatures:normal;font-variant-position:normal;font-variant-caps:normal;font-variant-numeric:normal;font-variant-alternates:normal;font-variant-east-asian:normal;font-feature-settings:normal;font-variation-settings:normal;text-indent:0;text-align:start;text-decoration:none;text-decoration-line:none;text-decoration-style:solid;text-decoration-color:#000000;letter-spacing:normal;word-spacing:normal;text-transform:none;writing-mode:lr-tb;direction:ltr;text-orientation:mixed;dominant-baseline:auto;baseline-shift:baseline;text-anchor:start;white-space:normal;shape-padding:0;shape-margin:0;inline-size:0;clip-rule:nonzero;display:inline;overflow:visible;visibility:visible;isolation:auto;mix-blend-mode:normal;color-interpolation:sRGB;color-interpolation-filters:linearRGB;solid-color:#000000;solid-opacity:1;vector-effect:none;fill:#283891;fill-opacity:1;fill-rule:nonzero;stroke:none;stroke-width:1.32837;stroke-linecap:butt;stroke-linejoin:miter;stroke-miterlimit:10;stroke-dasharray:none;stroke-dashoffset:0;stroke-opacity:1;color-rendering:auto;image-rendering:auto;shape-rendering:auto;text-rendering:auto;enable-background:accumulate;stop-color:#000000;stop-opacity:1"
                   id="path5229" />
              </g>
            </g>
            <g
               id="g5204" />
            <g
               id="g5208" />
          </g>
        </g>
      </g>
    </g>
  </g>
</svg>
