<?xml version="1.0" encoding="UTF-8" standalone="no"?>
<svg
   xmlns:dc="http://purl.org/dc/elements/1.1/"
   xmlns:cc="http://creativecommons.org/ns#"
   xmlns:rdf="http://www.w3.org/1999/02/22-rdf-syntax-ns#"
   xmlns:svg="http://www.w3.org/2000/svg"
   xmlns="http://www.w3.org/2000/svg"
   xmlns:sodipodi="http://sodipodi.sourceforge.net/DTD/sodipodi-0.dtd"
   xmlns:inkscape="http://www.inkscape.org/namespaces/inkscape"
   inkscape:version="1.0beta1 (32d4812, 2019-09-19)"
   sodipodi:docname="batch-b.svg"
   viewBox="0 0 64.426666 64.426666"
   height="64.426666"
   width="64.426666"
   xml:space="preserve"
   id="svg4974"
   version="1.1">
  <metadata
     id="metadata4980">
    <rdf:RDF>
      <cc:Work
         rdf:about="">
        <dc:format>image/svg+xml</dc:format>
        <dc:type
           rdf:resource="http://purl.org/dc/dcmitype/StillImage" />
        <dc:title></dc:title>
      </cc:Work>
    </rdf:RDF>
  </metadata>
  <defs
     id="defs4978" />
  <sodipodi:namedview
     inkscape:current-layer="g4982"
     inkscape:window-maximized="0"
     inkscape:window-y="23"
     inkscape:window-x="0"
     inkscape:cy="32.213333"
     inkscape:cx="32.213333"
     inkscape:zoom="11.128932"
     showgrid="false"
     id="namedview4976"
     inkscape:window-height="907"
     inkscape:window-width="1600"
     inkscape:pageshadow="2"
     inkscape:pageopacity="0"
     guidetolerance="10"
     gridtolerance="10"
     objecttolerance="10"
     borderopacity="1"
     inkscape:document-rotation="0"
     bordercolor="#666666"
     pagecolor="#ffffff" />
  <g
     transform="matrix(1.3333333,0,0,-1.3333333,0,64.426667)"
     inkscape:label="batch-w"
     inkscape:groupmode="layer"
     id="g4982">
    <g
       transform="translate(72,-23.681)"
       id="g4984">
      <g
         transform="translate(-47.841,65.275)"
         id="g4986">
        <g
           id="g4988">
          <g
             id="g4990">
            <g
               id="g4992">
              <g
                 style="opacity:1"
                 id="g5041">
                <path
                   id="path5045"
                   d="m -12.703125,-41.59375 c -6.309971,0 -11.457031,5.14706 -11.457031,11.457031 v 25.4042971 c 0,6.3099709 5.14706,11.4570313 11.457031,11.4570313 h 25.40625 c 6.309971,0 11.457031,-5.1470604 11.457031,-11.4570313 V -30.136719 c 0,-6.309971 -5.14706,-11.457031 -11.457031,-11.457031 z"
                   style="color:#000000;font-style:normal;font-variant:normal;font-weight:normal;font-stretch:normal;font-size:medium;line-height:normal;font-family:sans-serif;font-variant-ligatures:normal;font-variant-position:normal;font-variant-caps:normal;font-variant-numeric:normal;font-variant-alternates:normal;font-variant-east-asian:normal;font-feature-settings:normal;font-variation-settings:normal;text-indent:0;text-align:start;text-decoration:none;text-decoration-line:none;text-decoration-style:solid;text-decoration-color:#000000;letter-spacing:normal;word-spacing:normal;text-transform:none;writing-mode:lr-tb;direction:ltr;text-orientation:mixed;dominant-baseline:auto;baseline-shift:baseline;text-anchor:start;white-space:normal;shape-padding:0;shape-margin:0;inline-size:0;clip-rule:nonzero;display:inline;overflow:visible;visibility:visible;isolation:auto;mix-blend-mode:normal;color-interpolation:sRGB;color-interpolation-filters:linearRGB;solid-color:#000000;solid-opacity:1;vector-effect:none;fill:#283891;fill-opacity:1;fill-rule:nonzero;stroke:none;stroke-width:2.98883;stroke-linecap:butt;stroke-linejoin:miter;stroke-miterlimit:10;stroke-dasharray:none;stroke-dashoffset:0;stroke-opacity:1.0;filter-blend-mode:normal;filter-gaussianBlur-deviation:0;color-rendering:auto;image-rendering:auto;shape-rendering:auto;text-rendering:auto;enable-background:accumulate;stop-color:#000000;stop-opacity:1;" />
              </g>
            </g>
            <g
               id="g4996" />
            <g
               id="g5000" />
            <g
               id="g5004" />
            <g
               id="g5008">
              <g
                 style="opacity:1"
                 id="g5016" />
            </g>
            <g
               id="g5012">
              <path
                 d="m -5.4804688,-25.404297 c -1.3637748,0 -2.4902343,1.126463 -2.4902343,2.490235 v 10.958984 c 0,1.363778 1.1264676,2.4902343 2.4902343,2.4902342 H 5.4804688 c 1.3637667,0 2.4902343,-1.1264562 2.4902343,-2.4902342 v -10.958984 c 0,-1.363772 -1.1264595,-2.490235 -2.4902343,-2.490235 z m 0,1.992188 H 5.4804688 c 0.2869051,0 0.4980468,0.211158 0.4980468,0.498047 v 10.958984 c 0,0.286922 -0.2111336,0.498047 -0.4980468,0.498047 H -5.4804688 c -0.2869132,0 -0.4980468,-0.211125 -0.4980468,-0.498047 v -10.958984 c 0,-0.286889 0.2111417,-0.498047 0.4980468,-0.498047 z m -4.0839843,-8.070313 c -2.4583249,0 -4.4824219,2.024092 -4.4824219,4.482422 v 19.1289062 c 0,2.4583248 2.024097,4.484375 4.4824219,4.484375 H 9.5644531 c 2.4583249,0 4.4824219,-2.0260502 4.4824219,-4.484375 V -27 c 0,-2.45833 -2.024097,-4.482422 -4.4824219,-4.482422 z m 0,2.988281 H 9.5644531 c 0.8430949,0 1.4941409,0.651031 1.4941409,1.494141 v 19.1289062 c 0,0.8430953 -0.651046,1.4941407 -1.4941409,1.4941407 H -9.5644531 c -0.8430949,0 -1.4941409,-0.6510454 -1.4941409,-1.4941407 V -27 c 0,-0.84311 0.651046,-1.494141 1.4941409,-1.494141 z M -5.6126125,1.4935795 A 1.494415,1.494415 0 0 1 -7.0745268,-5.6117938e-4 V -2.3911862 H -4.083316 V -5.6117938e-4 A 1.494415,1.494415 0 0 1 -5.5803865,1.4935795 a 1.494415,1.494415 0 0 1 -0.032226,0 z m 5.58105464,0 A 1.494415,1.494415 0 0 1 -1.4934721,-5.6117938e-4 V -2.3911862 H 1.4948092 V -5.6117938e-4 A 1.494415,1.494415 0 0 1 6.6889426e-4,1.4935795 a 1.494415,1.494415 0 0 1 -0.0322267543,0 z m 5.57812516,0 A 1.494415,1.494415 0 0 1 4.084653,-5.6117938e-4 V -2.3911862 H 7.0743991 V -5.6117938e-4 A 1.494415,1.494415 0 0 1 5.5802588,1.4935795 a 1.494415,1.494415 0 0 1 -0.033691,0 z M -17.467594,-10.361401 a 1.494415,1.494415 0 0 1 -1.461914,-1.494141 1.494415,1.494415 0 0 1 1.494141,-1.494141 h 2.39209 v 2.988282 h -2.39209 a 1.494415,1.494415 0 0 1 -0.03223,0 z m 32.510743,0 v -2.988282 h 2.39209 a 1.494415,1.494415 0 0 1 1.494141,1.494141 1.494415,1.494415 0 0 1 -1.494141,1.494141 z m -32.512207,-5.578125 a 1.494415,1.494415 0 0 1 -1.46045,-1.495606 1.494415,1.494415 0 0 1 1.494141,-1.49414 h 2.39209 v 2.989746 h -2.39209 a 1.494415,1.494415 0 0 1 -0.03369,0 z m 32.512207,0 v -2.989746 h 2.39209 a 1.494415,1.494415 0 0 1 1.494141,1.49414 1.494415,1.494415 0 0 1 -1.494141,1.495606 z m -32.478516,-5.57959 a 1.494415,1.494415 0 0 1 -1.494141,-1.494141 1.494415,1.494415 0 0 1 1.494141,-1.494141 h 2.39209 v 2.988282 z m 32.478516,0 v -2.988282 h 2.39209 a 1.494415,1.494415 0 0 1 1.494141,1.494141 1.494415,1.494415 0 0 1 -1.494141,1.494141 z M -7.0745268,-32.479078 v -2.390625 a 1.494415,1.494415 0 0 1 1.4941403,-1.49414 1.494415,1.494415 0 0 1 1.4970705,1.49414 v 2.390625 z m 5.5810547,0 v -2.390625 a 1.494415,1.494415 0 0 1 1.49414099426,-1.49414 1.494415,1.494415 0 0 1 1.49414030574,1.49414 v 2.390625 z m 5.5781251,0 v -2.390625 a 1.494415,1.494415 0 0 1 1.4956058,-1.49414 1.494415,1.494415 0 0 1 1.4941403,1.49414 v 2.390625 z"
                 style="color:#000000;font-style:normal;font-variant:normal;font-weight:normal;font-stretch:normal;font-size:medium;line-height:normal;font-family:sans-serif;font-variant-ligatures:normal;font-variant-position:normal;font-variant-caps:normal;font-variant-numeric:normal;font-variant-alternates:normal;font-variant-east-asian:normal;font-feature-settings:normal;font-variation-settings:normal;text-indent:0;text-align:start;text-decoration:none;text-decoration-line:none;text-decoration-style:solid;text-decoration-color:#000000;letter-spacing:normal;word-spacing:normal;text-transform:none;writing-mode:lr-tb;direction:ltr;text-orientation:mixed;dominant-baseline:auto;baseline-shift:baseline;text-anchor:start;white-space:normal;shape-padding:0;shape-margin:0;inline-size:0;clip-rule:nonzero;display:inline;overflow:visible;visibility:visible;isolation:auto;mix-blend-mode:normal;color-interpolation:sRGB;color-interpolation-filters:linearRGB;solid-color:#000000;solid-opacity:1;vector-effect:none;fill:#ffffff;fill-opacity:1;fill-rule:nonzero;stroke:none;stroke-width:1.99255;stroke-linecap:butt;stroke-linejoin:miter;stroke-miterlimit:10;stroke-dasharray:none;stroke-dashoffset:0;stroke-opacity:1;filter-blend-mode:normal;filter-gaussianBlur-deviation:0;color-rendering:auto;image-rendering:auto;shape-rendering:auto;text-rendering:auto;enable-background:accumulate;stop-color:#000000;stop-opacity:1;opacity:1"
                 id="path5036" />
            </g>
          </g>
        </g>
      </g>
    </g>
  </g>
</svg>
