<?xml version="1.0" encoding="UTF-8" standalone="no"?>
<svg
   xmlns:dc="http://purl.org/dc/elements/1.1/"
   xmlns:cc="http://creativecommons.org/ns#"
   xmlns:rdf="http://www.w3.org/1999/02/22-rdf-syntax-ns#"
   xmlns:svg="http://www.w3.org/2000/svg"
   xmlns="http://www.w3.org/2000/svg"
   version="1.1"
   id="svg4734"
   xml:space="preserve"
   width="64.426666"
   height="64.426666"
   viewBox="0 0 64.426666 64.426666">
  <metadata
   id="metadata4740">
    <rdf:RDF>
      <cc:Work
   rdf:about="">
        <dc:format>image/svg+xml</dc:format>

        <dc:type
   rdf:resource="http://purl.org/dc/dcmitype/StillImage" />

        <dc:title></dc:title>

      </cc:Work>

    </rdf:RDF>

  </metadata>

  <defs
   id="defs4738">
    
  
      
    
        
      
          
        
            
            
            
            
            
            
            
            
          
              
            
              
            
              
            
              
            
              
            
              
            
                
              </defs>

  <path
   id="path4849"
   d="m 15.2745,64.426334 c -8.413294,0 -15.27604053,-6.862747 -15.27604053,-15.276041 V 15.277898 C -0.00154053,6.8646032 6.861206,0.00185616 15.2745,0.00185616 h 33.875 c 8.413294,0 15.276041,6.86274704 15.276041,15.27604184 v 33.872395 c 0,8.413294 -6.862747,15.276041 -15.276041,15.276041 z"
   style="color:#000000;font-style:normal;font-variant:normal;font-weight:normal;font-stretch:normal;font-size:medium;line-height:normal;font-family:sans-serif;font-variant-ligatures:normal;font-variant-position:normal;font-variant-caps:normal;font-variant-numeric:normal;font-variant-alternates:normal;font-variant-east-asian:normal;font-feature-settings:normal;font-variation-settings:normal;text-indent:0;text-align:start;text-decoration:none;text-decoration-line:none;text-decoration-style:solid;text-decoration-color:#000000;letter-spacing:normal;word-spacing:normal;text-transform:none;writing-mode:lr-tb;direction:ltr;text-orientation:mixed;dominant-baseline:auto;baseline-shift:baseline;text-anchor:start;white-space:normal;shape-padding:0;shape-margin:0;inline-size:0;clip-rule:nonzero;display:inline;overflow:visible;visibility:visible;opacity:1;isolation:auto;mix-blend-mode:normal;color-interpolation:sRGB;color-interpolation-filters:linearRGB;solid-color:#000000;solid-opacity:1;vector-effect:none;fill:#283891;fill-opacity:1;fill-rule:nonzero;stroke:none;stroke-width:3.98511;stroke-linecap:butt;stroke-linejoin:miter;stroke-miterlimit:10;stroke-dasharray:none;stroke-dashoffset:0;stroke-opacity:1;color-rendering:auto;image-rendering:auto;shape-rendering:auto;text-rendering:auto;enable-background:accumulate;stop-color:#000000;stop-opacity:1" />
<path
   id="path4790"
   style="color:#000000;font-style:normal;font-variant:normal;font-weight:normal;font-stretch:normal;font-size:medium;line-height:normal;font-family:sans-serif;font-variant-ligatures:normal;font-variant-position:normal;font-variant-caps:normal;font-variant-numeric:normal;font-variant-alternates:normal;font-variant-east-asian:normal;font-feature-settings:normal;font-variation-settings:normal;text-indent:0;text-align:start;text-decoration:none;text-decoration-line:none;text-decoration-style:solid;text-decoration-color:#000000;letter-spacing:normal;word-spacing:normal;text-transform:none;writing-mode:lr-tb;direction:ltr;text-orientation:mixed;dominant-baseline:auto;baseline-shift:baseline;text-anchor:start;white-space:normal;shape-padding:0;shape-margin:0;inline-size:0;clip-rule:nonzero;display:inline;overflow:visible;visibility:visible;opacity:1;isolation:auto;mix-blend-mode:normal;color-interpolation:sRGB;color-interpolation-filters:linearRGB;solid-color:#000000;solid-opacity:1;vector-effect:none;fill:#fdfdfe;fill-opacity:1;fill-rule:nonzero;stroke:none;stroke-width:2.65673;stroke-linecap:round;stroke-linejoin:miter;stroke-miterlimit:10;stroke-dasharray:none;stroke-dashoffset:0;stroke-opacity:1;color-rendering:auto;image-rendering:auto;shape-rendering:auto;text-rendering:auto;enable-background:accumulate;stop-color:#000000;stop-opacity:1"
   d="m 53.134766,14.28125 c -2.208832,0 -3.984375,1.777496 -3.984375,3.986328 0,2.208802 1.775545,3.984375 3.984375,3.984375 2.2088,0 3.984375,-1.775577 3.984375,-3.984375 0,-2.208828 -1.775573,-3.986328 -3.984375,-3.986328 z M 39.248047,20.617188 33.5,28.283203 l 2.212891,1.476563 3.410156,-4.546875 1.796875,2.697265 1.689453,-2.251953 z m 9.34375,0.388671 -8.048828,10.728516 c 1.346133,0.357259 2.482897,1.227935 3.1875,2.392578 L 51.777344,23.398438 C 50.431632,23.041589 49.296691,22.16966 48.591797,21.005859 Z m -23.353516,2.574219 c -2.208815,0 -3.984375,1.775545 -3.984375,3.984375 0,2.2088 1.77556,3.986328 3.984375,3.986328 2.208815,0 3.984375,-1.777528 3.984375,-3.986328 0,-2.20883 -1.77556,-3.984375 -3.984375,-3.984375 z m 5.201172,5.056641 c -0.282676,1.370417 -1.095108,2.549162 -2.212891,3.314453 l 5.757813,3.83789 c 0.283224,-1.370265 1.096403,-2.54821 2.214844,-3.3125 z m -9.744141,1.666015 -8.044921,10.728516 c 1.344708,0.358041 2.479471,1.230361 3.183593,2.394531 l 8.044922,-10.728515 c -1.344714,-0.35775 -2.47923,-1.230639 -3.183594,-2.394532 z m 26.601563,2.388672 -1.6875,2.251953 6.419922,9.63086 c 0.407332,0.6098 1.231758,0.774161 1.841797,0.367187 0.60859,-0.407241 0.772829,-1.230181 0.367187,-1.839844 z m -8.111328,0.1875 c -2.208815,0 -3.984375,1.775561 -3.984375,3.984375 0,2.208815 1.77556,3.984375 3.984375,3.984375 2.208815,0 3.984375,-1.77556 3.984375,-3.984375 0,-2.208814 -1.77556,-3.984375 -3.984375,-3.984375 z m -10.474609,1.791016 -4.285157,5.714844 -5.091797,1.697265 -2.751953,3.669922 c 0.0012,0.01548 8.89e-4,0.03136 0.002,0.04687 l 9.466797,-3.15625 4.873047,-6.498047 z m -17.419922,7.505859 c -2.208803,0 -3.9843754,1.779454 -3.9843754,3.988281 0,2.208799 1.7755777,3.984376 3.9843754,3.984376 2.208828,0 3.984375,-1.775573 3.984375,-3.984376 0,-2.208831 -1.775543,-3.988281 -3.984375,-3.988281 z" />

</svg>
