<?xml version="1.0" encoding="UTF-8" standalone="no"?>
<svg
   xmlns:dc="http://purl.org/dc/elements/1.1/"
   xmlns:cc="http://creativecommons.org/ns#"
   xmlns:rdf="http://www.w3.org/1999/02/22-rdf-syntax-ns#"
   xmlns:svg="http://www.w3.org/2000/svg"
   xmlns="http://www.w3.org/2000/svg"
   viewBox="0 0 64.426666 64.426666"
   height="64.426666"
   width="64.426666"
   xml:space="preserve"
   id="svg4734"
   version="1.1">
  <metadata
     id="metadata4740">
    <rdf:RDF>
      <cc:Work
         rdf:about="">
        <dc:format>image/svg+xml</dc:format>
        <dc:type
           rdf:resource="http://purl.org/dc/dcmitype/StillImage" />
        <dc:title></dc:title>
      </cc:Work>
    </rdf:RDF>
  </metadata>
  <defs
     id="defs4738" />
  <g
     transform="matrix(1.3333333,0,0,-1.3333333,0,64.426667)"
     id="g4742">
    <g
       transform="translate(72,-23.681)"
       id="g4744">
      <g
         transform="translate(-47.841,65.275)"
         id="g4746">
        <g
           id="g4748">
          <g
             id="g4750">
            <g
               id="g4752">
              <g
                 style="opacity:1"
                 id="g4845">
                <path
                   id="path4849"
                   d="M -12.703125 -41.59375 C -19.013096 -41.59375 -24.160156 -36.44669 -24.160156 -30.136719 L -24.160156 -4.7324219 C -24.160156 1.577549 -19.013096 6.7246094 -12.703125 6.7246094 L 12.703125 6.7246094 C 19.013096 6.7246094 24.160156 1.577549 24.160156 -4.7324219 L 24.160156 -30.136719 C 24.160156 -36.44669 19.013096 -41.59375 12.703125 -41.59375 L -12.703125 -41.59375 z M -12.703125 -38.605469 L 12.703125 -38.605469 C 17.397854 -38.605469 21.169922 -34.831448 21.169922 -30.136719 L 21.169922 -4.7324219 C 21.169922 -0.03769271 17.397854 3.7363281 12.703125 3.7363281 L -12.703125 3.7363281 C -17.397854 3.7363281 -21.169922 -0.03769271 -21.169922 -4.7324219 L -21.169922 -30.136719 C -21.169922 -34.831448 -17.397854 -38.605469 -12.703125 -38.605469 z "
                   style="color:#000000;font-style:normal;font-variant:normal;font-weight:normal;font-stretch:normal;font-size:medium;line-height:normal;font-family:sans-serif;font-variant-ligatures:normal;font-variant-position:normal;font-variant-caps:normal;font-variant-numeric:normal;font-variant-alternates:normal;font-variant-east-asian:normal;font-feature-settings:normal;font-variation-settings:normal;text-indent:0;text-align:start;text-decoration:none;text-decoration-line:none;text-decoration-style:solid;text-decoration-color:#000000;letter-spacing:normal;word-spacing:normal;text-transform:none;writing-mode:lr-tb;direction:ltr;text-orientation:mixed;dominant-baseline:auto;baseline-shift:baseline;text-anchor:start;white-space:normal;shape-padding:0;shape-margin:0;inline-size:0;clip-rule:nonzero;display:inline;overflow:visible;visibility:visible;isolation:auto;mix-blend-mode:normal;color-interpolation:sRGB;color-interpolation-filters:linearRGB;solid-color:#000000;solid-opacity:1;vector-effect:none;fill:#283891;fill-opacity:1;fill-rule:nonzero;stroke:none;stroke-width:2.98883;stroke-linecap:butt;stroke-linejoin:miter;stroke-miterlimit:10;stroke-dasharray:none;stroke-dashoffset:0;stroke-opacity:1.0;filter-blend-mode:normal;filter-gaussianBlur-deviation:0;color-rendering:auto;image-rendering:auto;shape-rendering:auto;text-rendering:auto;enable-background:accumulate;stop-color:#000000;stop-opacity:1;" />
              </g>
            </g>
            <g
               id="g4756">
              <path
                 transform="matrix(0.75000002,0,0,-0.75000002,-24.159,6.7260015)"
                 d="M 53.134766 14.28125 C 50.925934 14.28125 49.150391 16.058746 49.150391 18.267578 C 49.150391 20.47638 50.925936 22.251953 53.134766 22.251953 C 55.343566 22.251953 57.119141 20.476376 57.119141 18.267578 C 57.119141 16.05875 55.343568 14.28125 53.134766 14.28125 z M 39.248047 20.617188 L 33.5 28.283203 L 35.712891 29.759766 L 39.123047 25.212891 L 40.919922 27.910156 L 42.609375 25.658203 L 39.248047 20.617188 z M 48.591797 21.005859 L 40.542969 31.734375 C 41.889102 32.091634 43.025866 32.96231 43.730469 34.126953 L 51.777344 23.398438 C 50.431632 23.041589 49.296691 22.16966 48.591797 21.005859 z M 25.238281 23.580078 C 23.029466 23.580078 21.253906 25.355623 21.253906 27.564453 C 21.253906 29.773253 23.029466 31.550781 25.238281 31.550781 C 27.447096 31.550781 29.222656 29.773253 29.222656 27.564453 C 29.222656 25.355623 27.447096 23.580078 25.238281 23.580078 z M 30.439453 28.636719 C 30.156777 30.007136 29.344345 31.185881 28.226562 31.951172 L 33.984375 35.789062 C 34.267599 34.418797 35.080778 33.240852 36.199219 32.476562 L 30.439453 28.636719 z M 20.695312 30.302734 L 12.650391 41.03125 C 13.995099 41.389291 15.129862 42.261611 15.833984 43.425781 L 23.878906 32.697266 C 22.534192 32.339516 21.399676 31.466627 20.695312 30.302734 z M 47.296875 32.691406 L 45.609375 34.943359 L 52.029297 44.574219 C 52.436629 45.184019 53.261055 45.34838 53.871094 44.941406 C 54.479684 44.534165 54.643923 43.711225 54.238281 43.101562 L 47.296875 32.691406 z M 39.185547 32.878906 C 36.976732 32.878906 35.201172 34.654467 35.201172 36.863281 C 35.201172 39.072096 36.976732 40.847656 39.185547 40.847656 C 41.394362 40.847656 43.169922 39.072096 43.169922 36.863281 C 43.169922 34.654467 41.394362 32.878906 39.185547 32.878906 z M 28.710938 34.669922 L 24.425781 40.384766 L 19.333984 42.082031 L 16.582031 45.751953 C 16.583229 45.767436 16.58292 45.783309 16.583984 45.798828 L 26.050781 42.642578 L 30.923828 36.144531 L 28.710938 34.669922 z M 11.291016 42.175781 C 9.082213 42.175781 7.3066406 43.955235 7.3066406 46.164062 C 7.3066406 48.372861 9.0822183 50.148438 11.291016 50.148438 C 13.499844 50.148438 15.275391 48.372865 15.275391 46.164062 C 15.275391 43.955231 13.499848 42.175781 11.291016 42.175781 z "
                 style="color:#000000;font-style:normal;font-variant:normal;font-weight:normal;font-stretch:normal;font-size:medium;line-height:normal;font-family:sans-serif;font-variant-ligatures:normal;font-variant-position:normal;font-variant-caps:normal;font-variant-numeric:normal;font-variant-alternates:normal;font-variant-east-asian:normal;font-feature-settings:normal;font-variation-settings:normal;text-indent:0;text-align:start;text-decoration:none;text-decoration-line:none;text-decoration-style:solid;text-decoration-color:#000000;letter-spacing:normal;word-spacing:normal;text-transform:none;writing-mode:lr-tb;direction:ltr;text-orientation:mixed;dominant-baseline:auto;baseline-shift:baseline;text-anchor:start;white-space:normal;shape-padding:0;shape-margin:0;inline-size:0;clip-rule:nonzero;display:inline;overflow:visible;visibility:visible;opacity:1;isolation:auto;mix-blend-mode:normal;color-interpolation:sRGB;color-interpolation-filters:linearRGB;solid-color:#000000;solid-opacity:1;vector-effect:none;fill:#283891;fill-opacity:1;fill-rule:nonzero;stroke:none;stroke-width:2.65673;stroke-linecap:round;stroke-linejoin:miter;stroke-miterlimit:10;stroke-dasharray:none;stroke-dashoffset:0;stroke-opacity:1;color-rendering:auto;image-rendering:auto;shape-rendering:auto;text-rendering:auto;enable-background:accumulate;stop-color:#000000;stop-opacity:1"
                 id="path4790" />
            </g>
            <g
               id="g4760" />
            <g
               id="g4764" />
            <g
               id="g4768">
              <g
                 style="opacity:1"
                 id="g4815" />
            </g>
            <g
               id="g4772">
              <g
                 style="opacity:1"
                 id="g4809" />
            </g>
            <g
               id="g4776">
              <g
                 style="opacity:1"
                 id="g4797" />
            </g>
            <g
               id="g4780">
              <g
                 style="opacity:1"
                 id="g4803" />
            </g>
          </g>
        </g>
      </g>
    </g>
  </g>
</svg>
