<?xml version="1.0" encoding="UTF-8" standalone="no"?>
<svg
   xmlns:dc="http://purl.org/dc/elements/1.1/"
   xmlns:cc="http://creativecommons.org/ns#"
   xmlns:rdf="http://www.w3.org/1999/02/22-rdf-syntax-ns#"
   xmlns:svg="http://www.w3.org/2000/svg"
   xmlns="http://www.w3.org/2000/svg"
   version="1.1"
   id="svg4498"
   xml:space="preserve"
   width="64.426666"
   height="64.426666"
   viewBox="0 0 64.426666 64.426666">
  <metadata
   id="metadata4504">
    <rdf:RDF>
      <cc:Work
   rdf:about="">
        <dc:format>image/svg+xml</dc:format>

        <dc:type
   rdf:resource="http://purl.org/dc/dcmitype/StillImage" />

        <dc:title></dc:title>

      </cc:Work>

    </rdf:RDF>

  </metadata>

  <defs
   id="defs4502">
    
  
      
    
        
      
          
        
            
            
            
          
              
            
              
            
              
            
                
              
                
              </defs>

  
  <path
   id="path4626"
   d="m 15.2745,64.426334 c -8.413294,0 -15.27604053,-6.862747 -15.27604053,-15.276041 V 15.277898 C -0.00154053,6.8646032 6.861206,0.00185616 15.2745,0.00185616 h 33.875 c 8.413294,0 15.276041,6.86274704 15.276041,15.27604184 v 33.872395 c 0,8.413294 -6.862747,15.276041 -15.276041,15.276041 z m 0,-3.984375 h 33.875 c 6.259638,0 11.289062,-5.032028 11.289062,-11.291666 V 15.277898 c 0,-6.2596393 -5.029424,-11.2916669 -11.289062,-11.2916669 h -33.875 c -6.2596381,0 -11.289062,5.0320276 -11.289062,11.2916669 v 33.872395 c 0,6.259638 5.0294239,11.291666 11.289062,11.291666 z"
   style="color:#000000;font-style:normal;font-variant:normal;font-weight:normal;font-stretch:normal;font-size:medium;line-height:normal;font-family:sans-serif;font-variant-ligatures:normal;font-variant-position:normal;font-variant-caps:normal;font-variant-numeric:normal;font-variant-alternates:normal;font-variant-east-asian:normal;font-feature-settings:normal;font-variation-settings:normal;text-indent:0;text-align:start;text-decoration:none;text-decoration-line:none;text-decoration-style:solid;text-decoration-color:#000000;letter-spacing:normal;word-spacing:normal;text-transform:none;writing-mode:lr-tb;direction:ltr;text-orientation:mixed;dominant-baseline:auto;baseline-shift:baseline;text-anchor:start;white-space:normal;shape-padding:0;shape-margin:0;inline-size:0;clip-rule:nonzero;display:inline;overflow:visible;visibility:visible;opacity:1;isolation:auto;mix-blend-mode:normal;color-interpolation:sRGB;color-interpolation-filters:linearRGB;solid-color:#000000;solid-opacity:1;vector-effect:none;fill:#283891;fill-opacity:1;fill-rule:nonzero;stroke:none;stroke-width:3.98511;stroke-linecap:butt;stroke-linejoin:miter;stroke-miterlimit:10;stroke-dasharray:none;stroke-dashoffset:0;stroke-opacity:1;color-rendering:auto;image-rendering:auto;shape-rendering:auto;text-rendering:auto;enable-background:accumulate;stop-color:#000000;stop-opacity:1" />
<path
   d="m 35.421875,9.8691406 c -0.660384,-0.050917 -1.451039,0.1723244 -1.853516,0.5781254 l -0.52539,0.53125 c -0.56081,0.565451 -0.956057,1.960677 -0.775391,2.736328 l 0.166016,0.722656 c 0.297506,1.277162 0.152332,2.975403 -0.357422,4.183594 l -0.02539,0.06641 c -0.540723,1.281535 -1.823722,2.35724 -3.179687,2.667969 h -0.002 l -0.06836,0.01563 c -1.27839,0.292149 -2.979486,0.13979 -4.185547,-0.375 L 23.935501,20.70704 c -0.732483,-0.312648 -2.17581,-0.166973 -2.830078,0.28711 l -0.615235,0.427734 c -0.626084,0.434522 -1.051799,1.602553 -0.851562,2.337891 l 0.195312,0.724609 c 0.209247,0.768424 1.220392,1.807734 1.982422,2.039063 l 0.710938,0.214843 c 1.254816,0.380916 2.653865,1.3568 3.445312,2.402344 l 0.04102,0.05664 c 0.839961,1.109666 1.132443,2.757858 0.722656,4.08789 l -0.02148,0.06836 v 0.002 c -0.386558,1.25272 -1.367669,2.648837 -2.416016,3.435547 l -0.591797,0.443359 c -0.637009,0.478036 -1.232183,1.802079 -1.166015,2.595703 l 0.0625,0.744141 v 0.0039 c 0.06444,0.759156 0.865186,1.708321 1.601562,1.902344 l 0.722656,0.193359 c 0.770112,0.202925 2.176384,-0.152941 2.757813,-0.697266 l 0.539062,-0.505859 c 0.956774,-0.895731 2.50193,-1.62007 3.802735,-1.783203 l 0.07227,-0.0078 c 1.380961,-0.172543 2.955417,0.398008 3.902344,1.417968 l 0.04883,0.05273 c 0.892198,0.961028 1.608418,2.510605 1.765625,3.8125 l 0.08789,0.734375 c 0.09548,0.79067 0.947576,1.965198 1.667969,2.304687 l 0.675781,0.320313 c 0.689425,0.32489 1.914498,0.109451 2.451172,-0.431641 l 0.529297,-0.53125 C 43.789287,46.793996 44.182587,45.3968 44.001921,44.62115 L 43.833952,43.900447 C 43.536482,42.623301 43.6816,40.9231 44.191374,39.7149 l 0.0293,-0.06445 c 0.540994,-1.282292 1.822945,-2.35986 3.179688,-2.669922 l 0.07031,-0.01563 c 1.278383,-0.292152 2.97559,-0.139787 4.181641,0.375 l 0.68164,0.289062 c 0.732476,0.312647 2.173859,0.168925 2.828125,-0.285156 l 0.617188,-0.427734 c 0.626096,-0.43454 1.051792,-1.60255 0.851562,-2.337891 L 56.433563,33.85357 C 56.224317,33.085151 55.213186,32.045836 54.451141,31.814507 L 53.74411,31.59771 c -1.254787,-0.380916 -2.65386,-1.354806 -3.445313,-2.40039 l -0.04492,-0.05664 c -0.839954,-1.109676 -1.13049,-2.759812 -0.720703,-4.089844 l 0.01953,-0.07031 c 0.38656,-1.252727 1.369657,-2.646887 2.417969,-3.433594 l 0.59375,-0.443359 c 0.637009,-0.478021 1.230231,-1.802055 1.164063,-2.595704 l -0.0039,-0.0293 v -0.002 l -0.05859,-0.716796 c -0.06333,-0.759468 -0.862655,-1.712055 -1.59961,-1.90625 l -0.724609,-0.189454 c -0.770151,-0.20294 -2.176433,0.152961 -2.757813,0.697266 l -0.541015,0.50586 c -0.957228,0.89623 -2.501448,1.620639 -3.802735,1.783203 v -0.002 l -0.07031,0.0098 C 42.78893,18.830726 41.214497,18.258234 40.267578,17.238281 L 40.220703,17.1875 C 39.32851,16.226477 38.608365,14.67692 38.451172,13.375 l -0.08789,-0.734375 C 38.267812,11.849938 37.419625,10.671521 36.69922,10.332031 L 36.019531,10.015625 C 35.847178,9.9344052 35.642003,9.8861129 35.421875,9.8691406 Z M 38.306641,23.125 c 2.81022,0.07679 5.272134,2.117701 5.779297,4.994141 0.579626,3.287346 -1.614984,6.422313 -4.902344,7.001953 -3.287347,0.579613 -6.42234,-1.614984 -7.001953,-4.902344 -0.579627,-3.287347 1.614983,-6.422313 4.902343,-7.001953 0.410922,-0.07245 0.821197,-0.102767 1.222657,-0.0918 z m -16.488282,4.787109 c -0.125251,0.922729 -0.596625,1.928908 -1.226562,2.607422 l -0.400391,0.433594 c -0.697351,0.751131 -1.772052,1.142686 -2.789062,1.015625 l -0.585938,-0.07422 c -0.93667,-0.117586 -1.969208,-0.601082 -2.658203,-1.246093 L 13.337891,29.878906 C 13.03792,29.598084 12.202153,29.43531 11.818359,29.582031 l -0.824218,0.316407 c -0.400424,0.153077 -0.9949296,0.862327 -1.0761722,1.283203 l -0.1699219,0.867187 c -0.07788,0.403451 0.2299596,1.198695 0.5585941,1.445313 l 0.898437,0.673828 c 0.755541,0.566938 1.411345,1.499662 1.689453,2.402343 l 0.173828,0.5625 c 0.301811,0.979497 0.102921,2.106605 -0.515625,2.923829 l -0.355468,0.46875 c -0.570052,0.753156 -1.506283,1.405344 -2.4101566,1.679687 l -1.0742188,0.328125 c -0.3931586,0.119333 -0.9508183,0.760265 -1.015625,1.166016 l -0.140625,0.871093 c -0.067613,0.423372 0.248375,1.293437 0.5722656,1.574219 l 0.6660157,0.578125 c 0.3104626,0.269144 1.1533458,0.401517 1.5312501,0.240235 l 1.035156,-0.439453 c 0.868701,-0.37075 2.003036,-0.474103 2.923828,-0.263672 l 0.572266,0.132812 c 0.999181,0.228345 1.87894,0.963878 2.277344,1.908203 l 0.228515,0.542969 c 0.367132,0.870243 0.464255,2.0059 0.25,2.925781 l -0.255859,1.09375 c -0.09321,0.400243 0.181035,1.205879 0.5,1.464844 l 0.685547,0.556641 c 0.332789,0.270202 1.245176,0.431114 1.65039,0.291015 l 0.835938,-0.289062 c 0.388315,-0.134267 0.923401,-0.797169 0.972656,-1.205078 l 0.134766,-1.115235 c 0.113248,-0.93776 0.591722,-1.971865 1.234375,-2.664062 l 0.40039,-0.431641 c 0.697352,-0.751131 1.775959,-1.142685 2.792969,-1.015625 l 0.582031,0.07227 c 0.93727,0.117093 1.970603,0.602492 2.660157,1.248047 l 0.820312,0.767578 c 0.299971,0.280821 1.133806,0.443589 1.517578,0.296875 l 0.826172,-0.314453 C 33.37115,50.3723 33.967561,49.663129 34.048828,49.242192 L 34.214844,48.375 c 0.07788,-0.403452 -0.228007,-1.198695 -0.556641,-1.445312 L 32.759766,46.253906 C 32.00426,45.686968 31.346469,44.75617 31.068359,43.853516 l -0.171875,-0.5625 c -0.188535,-0.611887 -0.161009,-1.275058 0.02148,-1.890625 -0.692305,0.287775 -1.39401,0.674699 -1.783203,1.039062 l -0.542969,0.507813 c -0.938473,0.878581 -2.372401,1.28837 -3.650391,1.078125 -1.04487,0.809669 -2.403925,1.207567 -3.802734,0.960937 -2.629381,-0.463607 -4.395263,-2.987817 -3.931641,-5.617187 0.405643,-2.300701 2.389663,-3.940407 4.640625,-4.003907 0.321566,-0.0091 0.647892,0.01432 0.976563,0.07227 0.265272,0.04677 0.519334,0.12032 0.765625,0.207031 0.701844,-0.57455 1.60569,-1.864669 1.857422,-2.68164 l 0.01953,-0.06836 C 25.705037,32.121285 25.443411,30.645132 24.955078,30 h 0.002 l -0.04492,-0.05859 c -0.536846,-0.709202 -1.922333,-1.673276 -2.773437,-1.93164 z"
   style="color:#000000;font-style:normal;font-variant:normal;font-weight:normal;font-stretch:normal;font-size:medium;line-height:normal;font-family:sans-serif;font-variant-ligatures:normal;font-variant-position:normal;font-variant-caps:normal;font-variant-numeric:normal;font-variant-alternates:normal;font-variant-east-asian:normal;font-feature-settings:normal;font-variation-settings:normal;text-indent:0;text-align:start;text-decoration:none;text-decoration-line:none;text-decoration-style:solid;text-decoration-color:#000000;letter-spacing:normal;word-spacing:normal;text-transform:none;writing-mode:lr-tb;direction:ltr;text-orientation:mixed;dominant-baseline:auto;baseline-shift:baseline;text-anchor:start;white-space:normal;shape-padding:0;shape-margin:0;inline-size:0;clip-rule:nonzero;display:inline;overflow:visible;visibility:visible;opacity:1;isolation:auto;mix-blend-mode:normal;color-interpolation:sRGB;color-interpolation-filters:linearRGB;solid-color:#000000;solid-opacity:1;vector-effect:none;fill:#283891;fill-opacity:1;fill-rule:evenodd;stroke:none;stroke-width:1.32837;stroke-linecap:butt;stroke-linejoin:miter;stroke-miterlimit:10;stroke-dasharray:none;stroke-dashoffset:0;stroke-opacity:1;color-rendering:auto;image-rendering:auto;shape-rendering:auto;text-rendering:auto;enable-background:accumulate;stop-color:#000000;stop-opacity:1"
   id="path4596" />

</svg>
