<?xml version="1.0" encoding="UTF-8" standalone="no"?>
<svg
   xmlns:dc="http://purl.org/dc/elements/1.1/"
   xmlns:cc="http://creativecommons.org/ns#"
   xmlns:rdf="http://www.w3.org/1999/02/22-rdf-syntax-ns#"
   xmlns:svg="http://www.w3.org/2000/svg"
   xmlns="http://www.w3.org/2000/svg"
   xmlns:sodipodi="http://sodipodi.sourceforge.net/DTD/sodipodi-0.dtd"
   xmlns:inkscape="http://www.inkscape.org/namespaces/inkscape"
   inkscape:version="1.0beta1 (32d4812, 2019-09-19)"
   sodipodi:docname="disks-b.svg"
   viewBox="0 0 64.426666 64.426666"
   height="64.426666"
   width="64.426666"
   xml:space="preserve"
   id="svg4284"
   version="1.1">
  <metadata
     id="metadata4290">
    <rdf:RDF>
      <cc:Work
         rdf:about="">
        <dc:format>image/svg+xml</dc:format>
        <dc:type
           rdf:resource="http://purl.org/dc/dcmitype/StillImage" />
        <dc:title></dc:title>
      </cc:Work>
    </rdf:RDF>
  </metadata>
  <defs
     id="defs4288" />
  <sodipodi:namedview
     inkscape:current-layer="g4292"
     inkscape:window-maximized="0"
     inkscape:window-y="23"
     inkscape:window-x="0"
     inkscape:cy="33.516646"
     inkscape:cx="41.136432"
     inkscape:zoom="9.3441882"
     showgrid="false"
     id="namedview4286"
     inkscape:window-height="907"
     inkscape:window-width="1600"
     inkscape:pageshadow="2"
     inkscape:pageopacity="0"
     guidetolerance="10"
     gridtolerance="10"
     objecttolerance="10"
     borderopacity="1"
     inkscape:document-rotation="0"
     bordercolor="#666666"
     pagecolor="#ffffff" />
  <g
     transform="matrix(1.3333333,0,0,-1.3333333,0,64.426667)"
     inkscape:label="disks-w"
     inkscape:groupmode="layer"
     id="g4292">
    <g
       transform="translate(72,-23.681)"
       id="g4294">
      <g
         transform="translate(-47.841,65.275)"
         id="g4296">
        <g
           id="g4298">
          <g
             id="g4300">
            <g
               id="g4302">
              <g
                 style="opacity:1"
                 id="g4373">
                <path
                   sodipodi:nodetypes="sssssssss"
                   inkscape:connector-curvature="0"
                   id="path4377"
                   d="m -12.703125,-41.59375 c -6.309971,0 -11.457031,5.14706 -11.457031,11.457031 v 25.4042971 c 0,6.3099709 5.14706,11.4570313 11.457031,11.4570313 h 25.40625 c 6.309971,0 11.457031,-5.1470604 11.457031,-11.4570313 V -30.136719 c 0,-6.309971 -5.14706,-11.457031 -11.457031,-11.457031 z"
                   style="color:#000000;font-style:normal;font-variant:normal;font-weight:normal;font-stretch:normal;font-size:medium;line-height:normal;font-family:sans-serif;font-variant-ligatures:normal;font-variant-position:normal;font-variant-caps:normal;font-variant-numeric:normal;font-variant-alternates:normal;font-variant-east-asian:normal;font-feature-settings:normal;font-variation-settings:normal;text-indent:0;text-align:start;text-decoration:none;text-decoration-line:none;text-decoration-style:solid;text-decoration-color:#000000;letter-spacing:normal;word-spacing:normal;text-transform:none;writing-mode:lr-tb;direction:ltr;text-orientation:mixed;dominant-baseline:auto;baseline-shift:baseline;text-anchor:start;white-space:normal;shape-padding:0;shape-margin:0;inline-size:0;clip-rule:nonzero;display:inline;overflow:visible;visibility:visible;isolation:auto;mix-blend-mode:normal;color-interpolation:sRGB;color-interpolation-filters:linearRGB;solid-color:#000000;solid-opacity:1;vector-effect:none;fill:#283891;fill-opacity:1;fill-rule:nonzero;stroke:none;stroke-width:2.98883;stroke-linecap:butt;stroke-linejoin:miter;stroke-miterlimit:10;stroke-dasharray:none;stroke-dashoffset:0;stroke-opacity:1;color-rendering:auto;image-rendering:auto;shape-rendering:auto;text-rendering:auto;enable-background:accumulate;stop-color:#000000;stop-opacity:1" />
              </g>
            </g>
            <g
               id="g4306">
              <g
                 style="opacity:1"
                 id="g4354">
                <path
                   transform="matrix(0.75000002,0,0,-0.75000002,-24.159,6.7260015)"
                   d="M 31.578125 11.042969 C 30.525537 11.075827 29.559455 11.213991 28.667969 11.507812 C 27.47932 11.899576 26.265313 12.680826 25.769531 14.042969 L 23.179688 21.162109 C 20.893886 21.394499 18.813361 21.80505 17.068359 22.386719 C 15.662102 22.855472 14.461485 23.414774 13.478516 24.189453 C 12.495546 24.96413 11.623047 26.11489 11.623047 27.564453 L 11.623047 36.863281 C 11.623047 38.312845 12.495546 39.463607 13.478516 40.238281 C 13.479635 40.239164 13.481301 40.239352 13.482422 40.240234 L 13.482422 48.486328 C 13.482422 49.935891 14.354924 51.086656 15.337891 51.861328 C 16.320857 52.636 17.525385 53.197264 18.931641 53.666016 C 21.744151 54.603518 25.392716 55.128906 29.423828 55.128906 C 33.45494 55.128906 37.103505 54.603518 39.916016 53.666016 C 41.322271 53.197264 42.522892 52.636 43.505859 51.861328 C 44.488827 51.086656 45.363281 49.935891 45.363281 48.486328 L 45.363281 39.189453 C 45.363281 38.170056 44.926666 37.302442 44.328125 36.605469 C 44.783044 36.645977 45.229747 36.677745 45.658203 36.689453 C 47.139982 36.729944 48.461743 36.614415 49.650391 36.222656 C 50.839039 35.830898 52.053044 35.049644 52.548828 33.6875 L 55.728516 24.949219 C 56.224301 23.587073 55.797407 22.206736 55.138672 21.142578 C 54.479939 20.07842 53.541991 19.142162 52.380859 18.220703 C 50.058597 16.377785 46.809519 14.632643 43.021484 13.253906 C 39.233465 11.87517 35.623709 11.123949 32.660156 11.042969 C 32.289712 11.032846 31.928988 11.032016 31.578125 11.042969 z M 27.9375 19.738281 C 28.302629 20.087789 28.690946 20.433625 29.119141 20.773438 C 31.441396 22.616355 34.6905 24.359544 38.478516 25.738281 C 42.266547 27.117017 45.874332 27.872138 48.837891 27.953125 C 49.384362 27.968058 49.90151 27.951394 50.40625 27.917969 L 48.826172 32.257812 C 48.805775 32.269498 48.712615 32.337192 48.402344 32.439453 C 47.884036 32.610278 46.945411 32.737265 45.767578 32.705078 C 43.41191 32.640707 40.11089 31.986439 36.660156 30.730469 C 33.209432 29.474498 30.261928 27.855521 28.416016 26.390625 C 27.493059 25.658177 26.853648 24.956214 26.566406 24.492188 C 26.391623 24.20983 26.366422 24.097349 26.359375 24.078125 L 27.9375 19.738281 z M 15.607422 32.175781 C 16.069639 32.379832 16.54985 32.571305 17.068359 32.744141 C 19.880873 33.681643 23.533341 34.20703 27.564453 34.207031 C 29.690547 34.207031 31.686468 34.044041 33.53125 33.767578 C 34.113572 34.008282 34.686725 34.253774 35.298828 34.476562 C 36.740893 35.001435 38.155307 35.434411 39.519531 35.775391 L 39.519531 36.791016 C 39.50825 36.801548 39.449528 36.898253 39.181641 37.109375 C 38.753021 37.44717 37.912724 37.889119 36.794922 38.261719 C 34.559318 39.00692 31.236628 39.519533 27.564453 39.519531 C 23.892285 39.519533 20.565683 39.006921 18.330078 38.261719 C 17.212275 37.889117 16.371981 37.44717 15.943359 37.109375 C 15.675471 36.898253 15.61794 36.801547 15.607422 36.791016 L 15.607422 32.175781 z M 41.378906 43.796875 L 41.378906 48.414062 C 41.366426 48.426844 41.305586 48.521963 41.041016 48.730469 C 40.612395 49.068262 39.772098 49.512166 38.654297 49.884766 C 36.418694 50.629966 33.095996 51.142578 29.423828 51.142578 C 25.75166 51.142578 22.425056 50.629966 20.189453 49.884766 C 19.071652 49.512166 18.231356 49.068262 17.802734 48.730469 C 17.538166 48.521963 17.478523 48.426842 17.466797 48.414062 L 17.466797 43.798828 C 17.929713 44.002581 18.412811 44.194242 18.931641 44.367188 C 21.744151 45.304694 25.392715 45.830078 29.423828 45.830078 C 33.454941 45.830078 37.103505 45.304694 39.916016 44.367188 C 40.435408 44.194054 40.915998 44.000889 41.378906 43.796875 z "
                   style="color:#000000;font-style:normal;font-variant:normal;font-weight:normal;font-stretch:normal;font-size:medium;line-height:normal;font-family:sans-serif;font-variant-ligatures:normal;font-variant-position:normal;font-variant-caps:normal;font-variant-numeric:normal;font-variant-alternates:normal;font-variant-east-asian:normal;font-feature-settings:normal;font-variation-settings:normal;text-indent:0;text-align:start;text-decoration:none;text-decoration-line:none;text-decoration-style:solid;text-decoration-color:#000000;letter-spacing:normal;word-spacing:normal;text-transform:none;writing-mode:lr-tb;direction:ltr;text-orientation:mixed;dominant-baseline:auto;baseline-shift:baseline;text-anchor:start;white-space:normal;shape-padding:0;shape-margin:0;inline-size:0;clip-rule:nonzero;display:inline;overflow:visible;visibility:visible;isolation:auto;mix-blend-mode:normal;color-interpolation:sRGB;color-interpolation-filters:linearRGB;solid-color:#000000;solid-opacity:1;vector-effect:none;fill:#ffffff;fill-opacity:1;fill-rule:nonzero;stroke:none;stroke-width:3.98511;stroke-linecap:round;stroke-linejoin:miter;stroke-miterlimit:10;stroke-dasharray:none;stroke-dashoffset:0;stroke-opacity:1;color-rendering:auto;image-rendering:auto;shape-rendering:auto;text-rendering:auto;enable-background:accumulate;stop-color:#000000;stop-opacity:1"
                   id="path4358" />
              </g>
            </g>
            <g
               id="g4310">
              <g
                 style="opacity:1"
                 id="g4364" />
            </g>
            <g
               id="g4314">
              <g
                 style="opacity:1"
                 id="g4348" />
            </g>
            <g
               id="g4318">
              <g
                 style="opacity:1"
                 id="g4342" />
            </g>
            <g
               id="g4322">
              <g
                 style="opacity:1"
                 id="g4330" />
            </g>
            <g
               id="g4326">
              <g
                 style="opacity:1"
                 id="g4336" />
            </g>
          </g>
        </g>
      </g>
    </g>
  </g>
</svg>
