<?xml version="1.0" encoding="UTF-8" standalone="no"?>
<svg
   xmlns:dc="http://purl.org/dc/elements/1.1/"
   xmlns:cc="http://creativecommons.org/ns#"
   xmlns:rdf="http://www.w3.org/1999/02/22-rdf-syntax-ns#"
   xmlns:svg="http://www.w3.org/2000/svg"
   xmlns="http://www.w3.org/2000/svg"
   xmlns:sodipodi="http://sodipodi.sourceforge.net/DTD/sodipodi-0.dtd"
   xmlns:inkscape="http://www.inkscape.org/namespaces/inkscape"
   inkscape:version="1.0beta1 (32d4812, 2019-09-19)"
   sodipodi:docname="helix-b.svg"
   viewBox="0 0 64.426666 64.426666"
   height="64.426666"
   width="64.426666"
   xml:space="preserve"
   id="svg6629"
   version="1.1">
  <metadata
     id="metadata6635">
    <rdf:RDF>
      <cc:Work
         rdf:about="">
        <dc:format>image/svg+xml</dc:format>
        <dc:type
           rdf:resource="http://purl.org/dc/dcmitype/StillImage" />
        <dc:title></dc:title>
      </cc:Work>
    </rdf:RDF>
  </metadata>
  <defs
     id="defs6633" />
  <sodipodi:namedview
     inkscape:current-layer="g6637"
     inkscape:window-maximized="0"
     inkscape:window-y="23"
     inkscape:window-x="0"
     inkscape:cy="32.213333"
     inkscape:cx="32.213333"
     inkscape:zoom="11.128932"
     showgrid="false"
     id="namedview6631"
     inkscape:window-height="907"
     inkscape:window-width="1600"
     inkscape:pageshadow="2"
     inkscape:pageopacity="0"
     guidetolerance="10"
     gridtolerance="10"
     objecttolerance="10"
     borderopacity="1"
     inkscape:document-rotation="0"
     bordercolor="#666666"
     pagecolor="#ffffff" />
  <g
     transform="matrix(1.3333333,0,0,-1.3333333,0,64.426667)"
     inkscape:label="helix-w"
     inkscape:groupmode="layer"
     id="g6637">
    <g
       transform="translate(72,-23.681)"
       id="g6639">
      <g
         transform="translate(-47.841,65.275)"
         id="g6641">
        <g
           id="g6643">
          <g
             id="g6645">
            <g
               id="g6647">
              <path
                 id="path6734"
                 d="m -12.703125,-41.59375 c -6.309971,0 -11.457031,5.14706 -11.457031,11.457031 v 25.4042971 c 0,6.3099709 5.14706,11.4570313 11.457031,11.4570313 h 25.40625 c 6.309971,0 11.457031,-5.1470604 11.457031,-11.4570313 V -30.136719 c 0,-6.309971 -5.14706,-11.457031 -11.457031,-11.457031 z"
                 style="color:#000000;font-style:normal;font-variant:normal;font-weight:normal;font-stretch:normal;font-size:medium;line-height:normal;font-family:sans-serif;font-variant-ligatures:normal;font-variant-position:normal;font-variant-caps:normal;font-variant-numeric:normal;font-variant-alternates:normal;font-variant-east-asian:normal;font-feature-settings:normal;font-variation-settings:normal;text-indent:0;text-align:start;text-decoration:none;text-decoration-line:none;text-decoration-style:solid;text-decoration-color:#000000;letter-spacing:normal;word-spacing:normal;text-transform:none;writing-mode:lr-tb;direction:ltr;text-orientation:mixed;dominant-baseline:auto;baseline-shift:baseline;text-anchor:start;white-space:normal;shape-padding:0;shape-margin:0;inline-size:0;clip-rule:nonzero;display:inline;overflow:visible;visibility:visible;isolation:auto;mix-blend-mode:normal;color-interpolation:sRGB;color-interpolation-filters:linearRGB;solid-color:#000000;solid-opacity:1;vector-effect:none;fill:#283891;fill-opacity:1;fill-rule:nonzero;stroke:none;stroke-width:2.98883;stroke-linecap:butt;stroke-linejoin:miter;stroke-miterlimit:10;stroke-dasharray:none;stroke-dashoffset:0;stroke-opacity:1;filter-blend-mode:normal;filter-gaussianBlur-deviation:0;color-rendering:auto;image-rendering:auto;shape-rendering:auto;text-rendering:auto;enable-background:accumulate;stop-color:#000000;stop-opacity:1;opacity:1" />
            </g>
            <g
               id="g6651" />
            <g
               id="g6655">
              <path
                 transform="matrix(0.75000002,0,0,-0.75000002,-24.159,6.7260015)"
                 d="M 22.890625 4.9824219 A 3.9851067 3.9851067 0 0 0 22.222656 5.0429688 A 3.9851067 3.9851067 0 0 0 18.988281 9.6601562 C 19.713596 13.7737 21.854358 16.750365 24.349609 19.078125 C 25.754464 17.92772 27.18501 16.979261 28.511719 16.097656 C 29.466367 15.463288 30.296278 14.903109 31.085938 14.351562 C 28.83041 12.602264 27.289489 10.836582 26.837891 8.2753906 A 3.9851067 3.9851067 0 0 0 22.890625 4.9824219 z M 41.488281 4.9824219 A 3.9851067 3.9851067 0 0 0 37.587891 8.2753906 C 36.899256 12.180908 33.710871 14.239508 29.248047 17.205078 C 27.016635 18.687863 24.580228 20.301203 22.525391 22.671875 C 20.470554 25.042546 18.927734 28.357572 18.927734 32.214844 C 18.927734 36.129557 20.589537 39.474043 22.736328 41.820312 C 23.286844 42.421982 23.86215 42.970771 24.451172 43.482422 C 26.366817 41.862116 28.367974 40.582475 30.029297 39.478516 C 30.455839 39.195076 30.851575 38.923211 31.242188 38.652344 C 30.187996 37.895135 29.274629 37.160118 28.615234 36.439453 C 27.433699 35.14813 26.900391 34.124657 26.900391 32.214844 C 26.900391 30.247582 27.428853 29.178237 28.544922 27.890625 C 29.66099 26.603014 31.495127 25.282423 33.660156 23.84375 C 37.990215 20.966403 44.101368 17.226811 45.435547 9.6601562 A 3.9851067 3.9851067 0 0 0 42.201172 5.0429688 A 3.9851067 3.9851067 0 0 0 41.488281 4.9824219 z M 28.806641 9.9648438 C 29.314314 10.924854 30.085533 11.773527 31.070312 12.621094 L 33.355469 12.621094 C 34.339957 11.773698 35.109614 10.924661 35.617188 9.9648438 L 28.806641 9.9648438 z M 40.089844 20.84375 C 38.138697 22.511789 36.089941 23.82261 34.394531 24.949219 C 34.028349 25.192549 33.693498 25.425963 33.353516 25.660156 C 34.37198 26.423615 35.248673 27.163523 35.878906 27.890625 C 36.994975 29.178237 37.525391 30.247582 37.525391 32.214844 C 37.525391 34.1821 36.994975 35.251452 35.878906 36.539062 C 34.762837 37.826674 32.928702 39.147262 30.763672 40.585938 C 26.433611 43.463288 20.322459 47.202873 18.988281 54.769531 A 3.9851067 3.9851067 0 0 0 22.222656 59.384766 A 3.9851067 3.9851067 0 0 0 22.855469 59.445312 A 3.9851067 3.9851067 0 0 0 26.837891 56.152344 C 27.526526 52.246817 30.712959 50.188228 35.175781 47.222656 C 37.407193 45.739871 39.845554 44.128483 41.900391 41.757812 C 43.955227 39.387142 45.496094 36.072113 45.496094 32.214844 A 3.9851067 3.9851067 0 0 0 45.478516 31.845703 A 3.9851067 3.9851067 0 0 0 45.476562 31.830078 C 45.376846 28.139406 43.885622 24.962242 41.900391 22.671875 C 41.323188 22.005954 40.714483 21.404049 40.089844 20.84375 z M 29.75 28.5625 C 29.689352 28.627706 29.606332 28.69763 29.550781 28.761719 C 28.812416 29.613573 28.4314 30.231391 28.292969 31.21875 L 36.130859 31.21875 C 35.992428 30.231396 35.61141 29.61357 34.873047 28.761719 C 34.817434 28.697558 34.73455 28.627781 34.673828 28.5625 L 29.75 28.5625 z M 28.292969 33.210938 C 28.431208 34.199237 28.812018 34.815655 29.550781 35.667969 C 29.606332 35.732057 29.689352 35.801995 29.75 35.867188 L 34.673828 35.867188 C 34.73455 35.801922 34.817434 35.73213 34.873047 35.667969 C 35.611808 34.815658 35.992619 34.199232 36.130859 33.210938 L 28.292969 33.210938 z M 40.345703 45.130859 C 38.85447 46.384574 37.32422 47.391723 35.912109 48.330078 C 35.05747 48.897991 34.330098 49.395051 33.607422 49.894531 C 34.254397 50.388162 34.856085 50.879372 35.341797 51.371094 C 36.684894 52.73081 37.37423 53.90232 37.541016 55.808594 A 3.9851067 3.9851067 0 0 0 41.470703 59.445312 A 3.9851067 3.9851067 0 0 0 41.857422 59.431641 A 3.9851067 3.9851067 0 0 0 45.480469 55.113281 C 45.139594 51.217248 43.250778 48.036297 41.011719 45.769531 C 40.793306 45.548416 40.569297 45.33904 40.345703 45.130859 z M 31.068359 51.808594 C 30.084968 52.655628 29.315977 53.505771 28.808594 54.464844 L 35.615234 54.464844 C 35.107761 53.5056 34.339117 52.655778 33.355469 51.808594 L 31.068359 51.808594 z "
                 style="color:#000000;font-style:normal;font-variant:normal;font-weight:normal;font-stretch:normal;font-size:medium;line-height:normal;font-family:sans-serif;font-variant-ligatures:normal;font-variant-position:normal;font-variant-caps:normal;font-variant-numeric:normal;font-variant-alternates:normal;font-variant-east-asian:normal;font-feature-settings:normal;font-variation-settings:normal;text-indent:0;text-align:start;text-decoration:none;text-decoration-line:none;text-decoration-style:solid;text-decoration-color:#000000;letter-spacing:normal;word-spacing:normal;text-transform:none;writing-mode:lr-tb;direction:ltr;text-orientation:mixed;dominant-baseline:auto;baseline-shift:baseline;text-anchor:start;white-space:normal;shape-padding:0;shape-margin:0;inline-size:0;clip-rule:nonzero;display:inline;overflow:visible;visibility:visible;opacity:1;isolation:auto;mix-blend-mode:normal;color-interpolation:sRGB;color-interpolation-filters:linearRGB;solid-color:#000000;solid-opacity:1;vector-effect:none;fill:#ffffff;fill-opacity:1;fill-rule:nonzero;stroke:none;stroke-width:2.65673;stroke-linecap:butt;stroke-linejoin:miter;stroke-miterlimit:10;stroke-dasharray:none;stroke-dashoffset:0;stroke-opacity:1;color-rendering:auto;image-rendering:auto;shape-rendering:auto;text-rendering:auto;enable-background:accumulate;stop-color:#000000;stop-opacity:1"
                 id="path6705" />
            </g>
            <g
               id="g6659" />
            <g
               id="g6663" />
            <g
               id="g6667" />
            <g
               id="g6671" />
            <g
               id="g6675" />
            <g
               id="g6679" />
            <g
               id="g6683" />
            <g
               id="g6687" />
          </g>
        </g>
      </g>
    </g>
  </g>
</svg>
