<?xml version="1.0" encoding="UTF-8" standalone="no"?>
<svg
   xmlns:dc="http://purl.org/dc/elements/1.1/"
   xmlns:cc="http://creativecommons.org/ns#"
   xmlns:rdf="http://www.w3.org/1999/02/22-rdf-syntax-ns#"
   xmlns:svg="http://www.w3.org/2000/svg"
   xmlns="http://www.w3.org/2000/svg"
   xmlns:sodipodi="http://sodipodi.sourceforge.net/DTD/sodipodi-0.dtd"
   xmlns:inkscape="http://www.inkscape.org/namespaces/inkscape"
   inkscape:version="1.0beta1 (32d4812, 2019-09-19)"
   sodipodi:docname="log-b.svg"
   viewBox="0 0 64.426666 64.426666"
   height="64.426666"
   width="64.426666"
   xml:space="preserve"
   id="svg6798"
   version="1.1">
  <metadata
     id="metadata6804">
    <rdf:RDF>
      <cc:Work
         rdf:about="">
        <dc:format>image/svg+xml</dc:format>
        <dc:type
           rdf:resource="http://purl.org/dc/dcmitype/StillImage" />
        <dc:title></dc:title>
      </cc:Work>
    </rdf:RDF>
  </metadata>
  <defs
     id="defs6802" />
  <sodipodi:namedview
     inkscape:current-layer="g6806"
     inkscape:window-maximized="0"
     inkscape:window-y="23"
     inkscape:window-x="0"
     inkscape:cy="33.287512"
     inkscape:cx="15.178253"
     inkscape:zoom="9.3703169"
     showgrid="false"
     id="namedview6800"
     inkscape:window-height="907"
     inkscape:window-width="1600"
     inkscape:pageshadow="2"
     inkscape:pageopacity="0"
     guidetolerance="10"
     gridtolerance="10"
     objecttolerance="10"
     borderopacity="1"
     inkscape:document-rotation="0"
     bordercolor="#666666"
     pagecolor="#ffffff" />
  <g
     transform="matrix(1.3333333,0,0,-1.3333333,0,64.426667)"
     inkscape:label="log-w"
     inkscape:groupmode="layer"
     id="g6806">
    <g
       transform="translate(72,-23.681)"
       id="g6808">
      <g
         transform="translate(-47.841,65.275)"
         id="g6810">
        <g
           id="g6812">
          <g
             id="g6814">
            <g
               id="g6816">
              <g
                 style="opacity:1"
                 id="g6986">
                <path
                   transform="matrix(0.75000002,0,0,-0.75000002,-24.159,6.7260015)"
                   d="M 15.275391 0.001953125 C 6.8620962 0.001953125 -0.001953125 6.8640494 -0.001953125 15.277344 L -0.001953125 49.150391 C -0.001953125 57.563685 6.8620962 64.425781 15.275391 64.425781 L 49.150391 64.425781 C 57.563685 64.425781 64.425781 57.563685 64.425781 49.150391 L 64.425781 15.277344 C 64.425781 6.8640494 57.563685 0.001953125 49.150391 0.001953125 L 15.275391 0.001953125 z "
                   style="color:#000000;font-style:normal;font-variant:normal;font-weight:normal;font-stretch:normal;font-size:medium;line-height:normal;font-family:sans-serif;font-variant-ligatures:normal;font-variant-position:normal;font-variant-caps:normal;font-variant-numeric:normal;font-variant-alternates:normal;font-variant-east-asian:normal;font-feature-settings:normal;font-variation-settings:normal;text-indent:0;text-align:start;text-decoration:none;text-decoration-line:none;text-decoration-style:solid;text-decoration-color:#000000;letter-spacing:normal;word-spacing:normal;text-transform:none;writing-mode:lr-tb;direction:ltr;text-orientation:mixed;dominant-baseline:auto;baseline-shift:baseline;text-anchor:start;white-space:normal;shape-padding:0;shape-margin:0;inline-size:0;clip-rule:nonzero;display:inline;overflow:visible;visibility:visible;isolation:auto;mix-blend-mode:normal;color-interpolation:sRGB;color-interpolation-filters:linearRGB;solid-color:#000000;solid-opacity:1;vector-effect:none;fill:#283891;fill-opacity:1;fill-rule:nonzero;stroke:none;stroke-width:3.98511;stroke-linecap:butt;stroke-linejoin:miter;stroke-miterlimit:10;stroke-dasharray:none;stroke-dashoffset:0;stroke-opacity:1;color-rendering:auto;image-rendering:auto;shape-rendering:auto;text-rendering:auto;enable-background:accumulate;stop-color:#000000;stop-opacity:1"
                   id="path6990" />
              </g>
            </g>
            <g
               id="g6820" />
            <g
               id="g6824">
              <g
                 style="opacity:1"
                 id="g6922">
                <path
                   id="path6924"
                   d="m 7.97021,-6.97394 h 3.2379 c 0.55024,0 0.68087,0.31542 0.2918,0.70449 L 7.6784,-2.44795 C 7.28934,-2.05888 6.97394,-2.18951 6.97394,-2.73976 v -3.2379 c 0,-0.55024 0.44603,-0.99628 0.99627,-0.99628 z"
                   style="color:#000000;font-style:normal;font-variant:normal;font-weight:normal;font-stretch:normal;font-size:medium;line-height:normal;font-family:sans-serif;font-variant-ligatures:normal;font-variant-position:normal;font-variant-caps:normal;font-variant-numeric:normal;font-variant-alternates:normal;font-variant-east-asian:normal;font-feature-settings:normal;font-variation-settings:normal;text-indent:0;text-align:start;text-decoration:none;text-decoration-line:none;text-decoration-style:solid;text-decoration-color:#000000;letter-spacing:normal;word-spacing:normal;text-transform:none;writing-mode:lr-tb;direction:ltr;text-orientation:mixed;dominant-baseline:auto;baseline-shift:baseline;text-anchor:start;white-space:normal;shape-padding:0;shape-margin:0;inline-size:0;clip-rule:nonzero;display:inline;overflow:visible;visibility:visible;isolation:auto;mix-blend-mode:normal;color-interpolation:sRGB;color-interpolation-filters:linearRGB;solid-color:#000000;solid-opacity:1;vector-effect:none;fill:#283891;fill-opacity:1;fill-rule:nonzero;stroke:none;stroke-width:2.98883;stroke-linecap:butt;stroke-linejoin:miter;stroke-miterlimit:10;stroke-dasharray:none;stroke-dashoffset:0;stroke-opacity:1.0;filter-blend-mode:normal;filter-gaussianBlur-deviation:0;color-rendering:auto;image-rendering:auto;shape-rendering:auto;text-rendering:auto;enable-background:accumulate;stop-color:#000000;stop-opacity:1;" />
              </g>
            </g>
            <g
               id="g6828">
              <g
                 id="g6830">
                <g
                   transform="scale(-1)"
                   id="g6832">
                  <g
                     id="g6834" />
                  <g
                     transform="rotate(180,-23.9205,32.6375)"
                     id="g6836">
                    <g
                       id="g6838" />
                    <g
                       transform="translate(-5.4,-29.732)"
                       id="g6840">
                      <g
                         transform="matrix(0.49272,0,0,0.49272,-24.269,33.113)"
                         id="g6842">
                        <g
                           transform="translate(-36.882,104.13)"
                           id="g6844">
                          <g
                             id="g6846">
                            <g
                               id="g6848">
                              <g
                                 id="g6850" />
                              <g
                                 id="g6854">
                                <path
                                   d="m 27.640625,21.121094 a 1.9635418,1.9635418 0 0 0 -0.351563,0.0293 1.9635418,1.9635418 0 0 0 -1.59375,2.27539 c 0.358311,2.032122 1.422453,3.492453 2.65625,4.640625 0.688421,-0.562463 1.387115,-1.036824 2.03711,-1.46875 0.470468,-0.312628 0.878437,-0.589522 1.267578,-0.861328 -1.111679,-0.86208 -1.871238,-1.732191 -2.09375,-2.99414 a 1.9635418,1.9635418 0 0 0 -1.921875,-1.621094 z m 9.121094,0 a 1.9635418,1.9635418 0 0 0 -1.902344,1.621094 c -0.339304,1.924324 -1.908499,2.939195 -4.107422,4.40039 -1.099461,0.730598 -2.301994,1.525282 -3.314453,2.69336 -1.012459,1.168074 -1.771484,2.802571 -1.771484,4.703124 0,1.928858 0.819186,3.576369 1.876953,4.732422 0.272108,0.297392 0.556496,0.567524 0.847656,0.820313 0.943211,-0.797476 1.928161,-1.431089 2.746094,-1.974609 0.221296,-0.147053 0.388254,-0.275832 0.589843,-0.416016 -0.513097,-0.369431 -0.965267,-0.730285 -1.287109,-1.082031 -0.582166,-0.636261 -0.845703,-1.139075 -0.845703,-2.080079 0,-0.969306 0.260638,-1.496427 0.810547,-2.130859 0.549909,-0.634431 1.452778,-1.285277 2.519531,-1.994141 2.133507,-1.417724 5.14536,-3.260038 5.802734,-6.988281 a 1.9635418,1.9635418 0 0 0 -1.59375,-2.27539 1.9635418,1.9635418 0 0 0 -0.371093,-0.0293 z m -6.21875,2.455078 c 0.250162,0.471509 0.621443,0.892045 1.105469,1.308594 h 1.126953 c 0.483768,-0.416398 0.855397,-0.837256 1.105468,-1.308594 z m 5.542969,5.359375 c -0.959794,0.819729 -1.964989,1.469347 -2.798829,2.023437 -0.190735,0.126745 -0.331557,0.237664 -0.507812,0.359375 0.495085,0.372251 0.930822,0.735128 1.238281,1.089844 0.549909,0.634432 0.810547,1.161555 0.810547,2.130859 0,0.969307 -0.260637,1.494475 -0.810547,2.128907 -0.549909,0.634432 -1.452777,1.285276 -2.519531,1.99414 -2.133507,1.417729 -5.145358,3.261991 -5.802735,6.990235 a 1.9635418,1.9635418 0 0 0 1.59375,2.273437 1.9635418,1.9635418 0 0 0 0.3125,0.0293 1.9635418,1.9635418 0 0 0 1.960938,-1.621094 c 0.339304,-1.924331 1.910453,-2.939194 4.109375,-4.40039 1.099461,-0.730598 2.300041,-1.525283 3.3125,-2.69336 1.012459,-1.168076 1.771484,-2.800618 1.771484,-4.701172 a 1.9635418,1.9635418 0 0 0 -0.0098,-0.201171 c -0.052,-1.813511 -0.785669,-3.375885 -1.761719,-4.501953 -0.285729,-0.329648 -0.589247,-0.623269 -0.898437,-0.900391 z M 31,32.738281 c -0.03037,0.03262 -0.07183,0.06756 -0.09961,0.09961 -0.363695,0.419595 -0.550879,0.722758 -0.619141,1.208984 h 3.859375 c -0.06826,-0.486226 -0.253497,-0.789389 -0.617187,-1.208984 -0.02772,-0.03198 -0.06932,-0.06707 -0.09961,-0.09961 z m -0.71875,2.291016 c 0.06825,0.486303 0.255412,0.791303 0.619141,1.210937 0.0273,0.03149 0.06786,0.06562 0.09766,0.09766 h 2.427734 c 0.02972,-0.03196 0.07042,-0.06623 0.09766,-0.09766 0.363727,-0.419634 0.548941,-0.724634 0.617187,-1.210937 z m 5.919922,5.871094 c -0.730027,0.611902 -1.47496,1.118914 -2.166016,1.578125 -0.420866,0.279668 -0.778848,0.525502 -1.134765,0.771484 0.318599,0.242929 0.614328,0.484417 0.853515,0.726562 0.661771,0.66996 0.999853,1.248244 1.082032,2.1875 a 1.9635418,1.9635418 0 0 0 1.9375,1.791016 1.9635418,1.9635418 0 0 0 0.191406,-0.0059 1.9635418,1.9635418 0 0 0 1.783203,-2.128907 c -0.167956,-1.919651 -1.097943,-3.486635 -2.201172,-4.603515 -0.112242,-0.113631 -0.230708,-0.209691 -0.345703,-0.316406 z m -4.554688,3.292968 c -0.483381,0.416493 -0.853704,0.837161 -1.103515,1.308594 h 3.33789 C 33.631138,45.03069 33.26047,44.609702 32.777344,44.193359 Z M 17.267579,9.3007812 c -1.810443,0 -3.320313,1.5098528 -3.320313,3.3203128 l 0,39.187501 c 0,1.810473 1.509846,3.320312 3.320313,3.320312 l 29.890625,0 c 1.810467,0 3.320313,-1.509839 3.320313,-3.320312 l 0,-32.212892 c 0,-1.282563 -0.369837,-2.288165 -1.134766,-3.216797 -0.121641,-0.173916 -0.252554,-0.32482 -0.388672,-0.460937 L 43.857423,10.822266 C 43.720786,10.685626 43.56932,10.552216 43.394532,10.429688 42.467466,9.6674442 41.464421,9.3007812 40.183595,9.3007812 Z m 0.664063,3.9843748 21.58789,0 v 3.654297 c 0,1.810442 1.509846,3.320313 3.320313,3.320313 h 3.654297 l 0,30.882813 -28.5625,0 z"
                                   transform="matrix(1.5221627,0,0,-1.5221627,-49.030892,35.137741)"
                                   style="color:#000000;font-style:normal;font-variant:normal;font-weight:normal;font-stretch:normal;font-size:medium;line-height:normal;font-family:sans-serif;font-variant-ligatures:normal;font-variant-position:normal;font-variant-caps:normal;font-variant-numeric:normal;font-variant-alternates:normal;font-variant-east-asian:normal;font-feature-settings:normal;font-variation-settings:normal;text-indent:0;text-align:start;text-decoration:none;text-decoration-line:none;text-decoration-style:solid;text-decoration-color:#000000;letter-spacing:normal;word-spacing:normal;text-transform:none;writing-mode:lr-tb;direction:ltr;text-orientation:mixed;dominant-baseline:auto;baseline-shift:baseline;text-anchor:start;white-space:normal;shape-padding:0;shape-margin:0;inline-size:0;clip-rule:nonzero;display:inline;overflow:visible;visibility:visible;opacity:1;isolation:auto;mix-blend-mode:normal;color-interpolation:sRGB;color-interpolation-filters:linearRGB;solid-color:#000000;solid-opacity:1;vector-effect:none;fill:#ffffff;fill-opacity:1;fill-rule:nonzero;stroke:none;stroke-width:1.30903;stroke-linecap:butt;stroke-linejoin:miter;stroke-miterlimit:10;stroke-dasharray:none;stroke-dashoffset:0;stroke-opacity:1;color-rendering:auto;image-rendering:auto;shape-rendering:auto;text-rendering:auto;enable-background:accumulate;stop-color:#000000;stop-opacity:1"
                                   id="path6944" />
                              </g>
                              <g
                                 id="g6858" />
                              <g
                                 id="g6862" />
                              <g
                                 id="g6866" />
                              <g
                                 id="g6870" />
                              <g
                                 id="g6874" />
                              <g
                                 id="g6878" />
                              <g
                                 id="g6882" />
                              <g
                                 id="g6886" />
                            </g>
                          </g>
                        </g>
                      </g>
                    </g>
                    <g
                       transform="translate(-47.841,65.275)"
                       id="g6890" />
                  </g>
                </g>
              </g>
            </g>
          </g>
        </g>
      </g>
    </g>
  </g>
</svg>
