<?xml version="1.0" encoding="UTF-8" standalone="no"?>
<svg
   xmlns:dc="http://purl.org/dc/elements/1.1/"
   xmlns:cc="http://creativecommons.org/ns#"
   xmlns:rdf="http://www.w3.org/1999/02/22-rdf-syntax-ns#"
   xmlns:svg="http://www.w3.org/2000/svg"
   xmlns="http://www.w3.org/2000/svg"
   viewBox="0 0 64.426666 64.426666"
   height="64.426666"
   width="64.426666"
   xml:space="preserve"
   id="svg6798"
   version="1.1">

  <metadata
   id="metadata6804">
    <rdf:RDF>
      <cc:Work
   rdf:about="">
        <dc:format>image/svg+xml</dc:format>


        <dc:type
   rdf:resource="http://purl.org/dc/dcmitype/StillImage" />


        <dc:title></dc:title>


      </cc:Work>


    </rdf:RDF>


  </metadata>


  <defs
   id="defs6802">
                                
                              
                              
                              
                              
                              
                              
                              
                              
                              
                              
                              
                            
                            
                          
                          
                        
                        
                      
                      
                    
                    
                    
                    
                  
                  
                  
                
                
              
              
            
          
        
            
            
            
            
          
              
            
                
              
        
      
      
    
    
  </defs>


  <path
   style="color:#000000;font-style:normal;font-variant:normal;font-weight:normal;font-stretch:normal;font-size:medium;line-height:normal;font-family:sans-serif;font-variant-ligatures:normal;font-variant-position:normal;font-variant-caps:normal;font-variant-numeric:normal;font-variant-alternates:normal;font-variant-east-asian:normal;font-feature-settings:normal;font-variation-settings:normal;text-indent:0;text-align:start;text-decoration:none;text-decoration-line:none;text-decoration-style:solid;text-decoration-color:#000000;letter-spacing:normal;word-spacing:normal;text-transform:none;writing-mode:lr-tb;direction:ltr;text-orientation:mixed;dominant-baseline:auto;baseline-shift:baseline;text-anchor:start;white-space:normal;shape-padding:0;shape-margin:0;inline-size:0;clip-rule:nonzero;display:inline;overflow:visible;visibility:visible;opacity:1;isolation:auto;mix-blend-mode:normal;color-interpolation:sRGB;color-interpolation-filters:linearRGB;solid-color:#000000;solid-opacity:1;vector-effect:none;fill:#283891;fill-opacity:1;fill-rule:nonzero;stroke:none;stroke-width:3.98511;stroke-linecap:butt;stroke-linejoin:miter;stroke-miterlimit:10;stroke-dasharray:none;stroke-dashoffset:0;stroke-opacity:1;color-rendering:auto;image-rendering:auto;shape-rendering:auto;text-rendering:auto;enable-background:accumulate;stop-color:#000000;stop-opacity:1"
   d="m 15.2745,64.426334 c -8.4132948,0 -15.27604133,-6.862747 -15.27604133,-15.276041 V 15.277898 c 0,-8.4132949 6.86274653,-15.27604139 15.27604133,-15.27604139 h 33.874999 c 8.413294,0 15.276041,6.86274649 15.276041,15.27604139 v 33.872395 c 0,8.413294 -6.862747,15.276041 -15.276041,15.276041 z"
   id="path6990" />

<path
   id="path6944"
   style="color:#000000;font-style:normal;font-variant:normal;font-weight:normal;font-stretch:normal;font-size:medium;line-height:normal;font-family:sans-serif;font-variant-ligatures:normal;font-variant-position:normal;font-variant-caps:normal;font-variant-numeric:normal;font-variant-alternates:normal;font-variant-east-asian:normal;font-feature-settings:normal;font-variation-settings:normal;text-indent:0;text-align:start;text-decoration:none;text-decoration-line:none;text-decoration-style:solid;text-decoration-color:#000000;letter-spacing:normal;word-spacing:normal;text-transform:none;writing-mode:lr-tb;direction:ltr;text-orientation:mixed;dominant-baseline:auto;baseline-shift:baseline;text-anchor:start;white-space:normal;shape-padding:0;shape-margin:0;inline-size:0;clip-rule:nonzero;display:inline;overflow:visible;visibility:visible;opacity:1;isolation:auto;mix-blend-mode:normal;color-interpolation:sRGB;color-interpolation-filters:linearRGB;solid-color:#000000;solid-opacity:1;vector-effect:none;fill:#ffffff;fill-opacity:1;fill-rule:nonzero;stroke:none;stroke-width:1.30903;stroke-linecap:butt;stroke-linejoin:miter;stroke-miterlimit:10;stroke-dasharray:none;stroke-dashoffset:0;stroke-opacity:1;color-rendering:auto;image-rendering:auto;shape-rendering:auto;text-rendering:auto;enable-background:accumulate;stop-color:#000000;stop-opacity:1"
   d="m 27.640625,21.121093 a 1.9635418,1.9635418 0 0 0 -0.351564,0.02929 1.9635418,1.9635418 0 0 0 -1.59375,2.275388 c 0.358311,2.032121 1.422454,3.492454 2.65625,4.640628 0.688421,-0.562464 1.387116,-1.036824 2.03711,-1.468751 0.470468,-0.312628 0.878438,-0.589521 1.267579,-0.861329 -1.11168,-0.862076 -1.871239,-1.732187 -2.093751,-2.994142 a 1.9635418,1.9635418 0 0 0 -1.921874,-1.621088 z m 9.121093,0 a 1.9635418,1.9635418 0 0 0 -1.902344,1.621095 c -0.339303,1.924321 -1.908499,2.939193 -4.107421,4.400389 -1.099462,0.730599 -2.301995,1.525283 -3.314454,2.69336 -1.012458,1.168075 -1.771484,2.802572 -1.771484,4.703124 0,1.928859 0.819187,3.576369 1.876954,4.732423 0.272108,0.297392 0.556496,0.567524 0.847656,0.820313 0.94321,-0.797476 1.92816,-1.431089 2.746093,-1.974609 0.221296,-0.147054 0.388255,-0.275832 0.589843,-0.416016 -0.513096,-0.369431 -0.965267,-0.730286 -1.287108,-1.082031 -0.582167,-0.636261 -0.845704,-1.139076 -0.845704,-2.08008 0,-0.969305 0.260638,-1.496427 0.810548,-2.130859 0.549909,-0.63443 1.452777,-1.285277 2.51953,-1.994141 2.133507,-1.417724 5.14536,-3.260037 5.802733,-6.98828 A 1.9635418,1.9635418 0 0 0 37.132811,21.150393 1.9635418,1.9635418 0 0 0 36.761718,21.1211 Z m -6.218749,2.455079 c 0.250161,0.471508 0.621442,0.892047 1.105469,1.308593 h 1.126952 c 0.483768,-0.416394 0.855397,-0.837257 1.105468,-1.308593 z m 5.542969,5.359375 c -0.959795,0.819729 -1.96499,1.469348 -2.798829,2.023437 -0.190735,0.126747 -0.331558,0.237664 -0.507812,0.359374 0.495084,0.372251 0.930821,0.735128 1.238279,1.089844 0.54991,0.634432 0.810548,1.161555 0.810548,2.130859 0,0.969308 -0.260637,1.494476 -0.810548,2.128908 -0.549908,0.634431 -1.452775,1.285276 -2.51953,1.99414 -2.133507,1.417728 -5.145357,3.261991 -5.802735,6.990234 a 1.9635418,1.9635418 0 0 0 1.59375,2.273438 1.9635418,1.9635418 0 0 0 0.3125,0.02929 1.9635418,1.9635418 0 0 0 1.960938,-1.621095 c 0.339304,-1.92433 1.910454,-2.939193 4.109375,-4.400389 1.099461,-0.730598 2.300041,-1.525284 3.3125,-2.69336 1.012458,-1.168077 1.771484,-2.800618 1.771484,-4.701173 a 1.9635418,1.9635418 0 0 0 -0.0099,-0.201171 c -0.052,-1.81351 -0.785669,-3.375885 -1.761719,-4.501951 -0.285729,-0.329648 -0.589248,-0.62327 -0.898437,-0.900392 z m -5.085939,3.802733 c -0.03037,0.03261 -0.07183,0.06756 -0.09961,0.09961 -0.363695,0.419595 -0.550879,0.722759 -0.61914,1.208984 h 3.859374 c -0.06825,-0.486225 -0.253497,-0.789389 -0.617186,-1.208984 -0.02772,-0.03197 -0.06932,-0.06707 -0.09961,-0.09961 z m -0.71875,2.291016 c 0.06825,0.486304 0.255413,0.791304 0.619141,1.210937 0.02729,0.03149 0.06785,0.06561 0.09767,0.09767 h 2.427734 c 0.02972,-0.03196 0.07043,-0.06623 0.09767,-0.09767 C 33.88719,35.8206 34.072405,35.5156 34.14065,35.029296 Z m 5.919922,5.871094 c -0.730027,0.611903 -1.47496,1.118915 -2.166016,1.578126 -0.420867,0.279668 -0.778848,0.525501 -1.134765,0.771484 0.318599,0.242929 0.614328,0.484417 0.853516,0.726561 0.66177,0.66996 0.999852,1.248244 1.08203,2.1875 a 1.9635418,1.9635418 0 0 0 1.937502,1.791016 1.9635418,1.9635418 0 0 0 0.191405,-0.0059 1.9635418,1.9635418 0 0 0 1.783203,-2.128907 c -0.167955,-1.919651 -1.097943,-3.486634 -2.201172,-4.603514 -0.11224,-0.113627 -0.230708,-0.209692 -0.345703,-0.316407 z m -4.554688,3.292968 c -0.483381,0.416493 -0.853704,0.837161 -1.103514,1.308595 h 3.337889 C 33.631138,45.03069 33.26047,44.609701 32.777343,44.193358 Z M 17.267578,9.3007804 c -1.810442,0 -3.320313,1.5098516 -3.320313,3.3203146 v 39.187499 c 0,1.810473 1.509847,3.320312 3.320313,3.320312 h 29.890625 c 1.810466,0 3.320313,-1.509839 3.320313,-3.320312 v -32.21289 c 0,-1.282563 -0.369837,-2.288165 -1.134767,-3.216797 -0.12164,-0.173917 -0.252553,-0.324821 -0.388672,-0.460936 L 43.857422,10.822267 C 43.720786,10.685626 43.569319,10.552216 43.394531,10.429687 42.467466,9.667443 41.46442,9.3007804 40.183594,9.3007804 Z m 0.664064,3.9843776 h 21.587889 v 3.654293 c 0,1.810444 1.509847,3.320316 3.320313,3.320316 h 3.654298 v 30.882811 h -28.5625 z" />


</svg>
