<?xml version="1.0" encoding="UTF-8" standalone="no"?>
<svg
   xmlns:dc="http://purl.org/dc/elements/1.1/"
   xmlns:cc="http://creativecommons.org/ns#"
   xmlns:rdf="http://www.w3.org/1999/02/22-rdf-syntax-ns#"
   xmlns:svg="http://www.w3.org/2000/svg"
   xmlns="http://www.w3.org/2000/svg"
   version="1.1"
   id="svg5961"
   xml:space="preserve"
   width="64.426666"
   height="64.426666"
   viewBox="0 0 64.426666 64.426666">
  <metadata
   id="metadata5967">
    <rdf:RDF>
      <cc:Work
   rdf:about="">
        <dc:format>image/svg+xml</dc:format>

        <dc:type
   rdf:resource="http://purl.org/dc/dcmitype/StillImage" />

        <dc:title></dc:title>

      </cc:Work>

    </rdf:RDF>

  </metadata>

  <defs
   id="defs5965">
    
  
      
    
        
      
          
        
            
            
            
            
            
          
              
            
              
            
              
            
              
            
                
              
                
              
                  
                  
                
                    
                    
                    
                  
                      
                    
                        
                      
                          
                        
                            
                          
                              
                              
                              
                              
                              
                              
                              
                              
                              
                              
                            </defs>

  <path
   id="path6135"
   d="m 15.2745,64.426334 c -8.413294,0 -15.27604053,-6.862747 -15.27604053,-15.276041 V 15.277898 C -0.00154053,6.8646032 6.861206,0.00185616 15.2745,0.00185616 h 33.875 c 8.413294,0 15.276041,6.86274704 15.276041,15.27604184 v 33.872395 c 0,8.413294 -6.862747,15.276041 -15.276041,15.276041 z"
   style="color:#000000;font-style:normal;font-variant:normal;font-weight:normal;font-stretch:normal;font-size:medium;line-height:normal;font-family:sans-serif;font-variant-ligatures:normal;font-variant-position:normal;font-variant-caps:normal;font-variant-numeric:normal;font-variant-alternates:normal;font-variant-east-asian:normal;font-feature-settings:normal;font-variation-settings:normal;text-indent:0;text-align:start;text-decoration:none;text-decoration-line:none;text-decoration-style:solid;text-decoration-color:#000000;letter-spacing:normal;word-spacing:normal;text-transform:none;writing-mode:lr-tb;direction:ltr;text-orientation:mixed;dominant-baseline:auto;baseline-shift:baseline;text-anchor:start;white-space:normal;shape-padding:0;shape-margin:0;inline-size:0;clip-rule:nonzero;display:inline;overflow:visible;visibility:visible;opacity:1;isolation:auto;mix-blend-mode:normal;color-interpolation:sRGB;color-interpolation-filters:linearRGB;solid-color:#000000;solid-opacity:1;vector-effect:none;fill:#283891;fill-opacity:1;fill-rule:nonzero;stroke:none;stroke-width:3.98511;stroke-linecap:butt;stroke-linejoin:miter;stroke-miterlimit:10;stroke-dasharray:none;stroke-dashoffset:0;stroke-opacity:1;color-rendering:auto;image-rendering:auto;shape-rendering:auto;text-rendering:auto;enable-background:accumulate;stop-color:#000000;stop-opacity:1" />
<path
   id="path6071"
   style="color:#000000;font-style:normal;font-variant:normal;font-weight:normal;font-stretch:normal;font-size:medium;line-height:normal;font-family:sans-serif;font-variant-ligatures:normal;font-variant-position:normal;font-variant-caps:normal;font-variant-numeric:normal;font-variant-alternates:normal;font-variant-east-asian:normal;font-feature-settings:normal;font-variation-settings:normal;text-indent:0;text-align:start;text-decoration:none;text-decoration-line:none;text-decoration-style:solid;text-decoration-color:#000000;letter-spacing:normal;word-spacing:normal;text-transform:none;writing-mode:lr-tb;direction:ltr;text-orientation:mixed;dominant-baseline:auto;baseline-shift:baseline;text-anchor:start;white-space:normal;shape-padding:0;shape-margin:0;inline-size:0;clip-rule:nonzero;display:inline;overflow:visible;visibility:visible;opacity:1;isolation:auto;mix-blend-mode:normal;color-interpolation:sRGB;color-interpolation-filters:linearRGB;solid-color:#000000;solid-opacity:1;vector-effect:none;fill:#fafbfe;fill-opacity:1;fill-rule:nonzero;stroke:none;stroke-width:3.98511;stroke-linecap:butt;stroke-linejoin:miter;stroke-miterlimit:10;stroke-dasharray:none;stroke-dashoffset:0;stroke-opacity:1;color-rendering:auto;image-rendering:auto;shape-rendering:auto;text-rendering:auto;enable-background:accumulate;stop-color:#000000;stop-opacity:1"
   d="m 24.574219,9.3007812 c -2.674954,0 -5.081208,1.4916258 -6.34375,3.7617188 -0.03831,0.06071 -0.07229,0.123529 -0.107422,0.185547 -0.05076,0.09803 -0.109822,0.190261 -0.15625,0.291015 -0.01724,0.03598 -0.03045,0.07492 -0.04687,0.111329 -0.131783,0.299013 -0.248301,0.607296 -0.339844,0.927734 l -7.109375,24.878906 c -0.8044383,2.815811 -0.4892708,6.216684 0.820313,8.835938 l 1.085937,2.169922 c 1.414959,2.829974 4.384817,4.666015 7.548828,4.666015 h 19.923828 c 3.236316,0 6.107107,-2.165531 6.996094,-5.277344 l 7.109375,-24.880859 c 0.444501,-1.555907 0.208895,-3.229259 -0.71875,-4.458984 -0.532604,-0.706043 -1.272166,-1.224746 -2.107422,-1.544922 l -1.115234,3.900391 c 0.01347,0.01545 0.03142,0.03156 0.04297,0.04687 0.118166,0.156649 0.224602,0.403829 0.06641,0.960938 L 43.013682,48.757808 C 42.69355,49.8784 41.01517,51.142574 39.849619,51.142574 H 19.925781 c -1.237856,0 -3.432887,-1.354032 -3.986328,-2.460937 l -1.083984,-2.171875 c -0.09957,-0.199154 -0.189476,-0.451301 -0.271485,-0.72461 0.227669,0.02784 0.458932,0.04492 0.691407,0.04492 h 19.925781 c 3.236316,0 6.107078,-2.1636 6.996094,-5.27539 l 7.109375,-24.882813 c 0.444502,-1.555907 0.208895,-3.227306 -0.71875,-4.457031 C 47.660245,9.9851181 46.1162,9.3007813 44.498047,9.3007812 Z m 2.136719,4.8457028 a 1.9635418,1.9635418 0 0 1 1.921874,1.623047 c 0.222512,1.261953 0.982075,2.132061 2.09375,2.994141 -0.388829,0.27156 -0.797582,0.54706 -1.267578,0.859375 -0.649888,0.431854 -1.348798,0.906412 -2.037109,1.46875 -1.2338,-1.148172 -2.297939,-2.608504 -2.65625,-4.640625 a 1.9635418,1.9635418 0 0 1 1.59375,-2.273438 1.9635418,1.9635418 0 0 1 0.351563,-0.03125 z m 9.123046,0.002 a 1.9635418,1.9635418 0 0 1 0.369141,0.0293 1.9635418,1.9635418 0 0 1 1.59375,2.273438 c -0.657377,3.728242 -3.667274,5.570555 -5.800781,6.988281 -1.066754,0.708863 -1.971575,1.359709 -2.521485,1.994141 -0.549909,0.634432 -0.810547,1.16155 -0.810547,2.130859 0,0.941003 0.263538,1.445771 0.845704,2.082031 0.321668,0.351557 0.774371,0.710862 1.287109,1.080078 -0.201754,0.140305 -0.368346,0.270783 -0.589844,0.417969 -0.817909,0.543506 -1.80291,1.175214 -2.746093,1.972657 -0.291151,-0.252975 -0.575558,-0.522931 -0.847657,-0.820313 -1.057767,-1.156054 -1.876953,-2.803564 -1.876953,-4.732422 0,-1.900555 0.759028,-3.533095 1.771484,-4.701172 1.01246,-1.168077 2.214992,-1.962761 3.314454,-2.693359 2.198922,-1.461196 3.768118,-2.476064 4.107422,-4.400391 a 1.9635418,1.9635418 0 0 1 1.904296,-1.621093 z m -6.220703,2.453124 h 3.337891 c -0.249721,0.471115 -0.620389,0.892469 -1.103516,1.308594 h -1.130859 c -0.483127,-0.416171 -0.853795,-0.837525 -1.103516,-1.30864 z m 5.542969,5.361329 c 0.309194,0.277121 0.612708,0.570743 0.898438,0.90039 0.983468,1.134636 1.723706,2.709935 1.765624,4.541016 a 1.9635418,1.9635418 0 0 1 0.0039,0.08594 1.9635418,1.9635418 0 0 1 0.0039,0.07422 c 0,1.900554 -0.76098,3.533095 -1.773437,4.701172 -1.012459,1.168077 -2.21304,1.962761 -3.3125,2.693359 -2.198922,1.461197 -3.770071,2.47606 -4.109376,4.400391 a 1.9635418,1.9635418 0 0 1 -1.960937,1.623047 1.9635418,1.9635418 0 0 1 -0.3125,-0.03125 1.9635418,1.9635418 0 0 1 -1.59375,-2.273438 c 0.657376,-3.728244 3.669227,-5.570553 5.802734,-6.988281 1.066754,-0.708864 1.969622,-1.359708 2.519532,-1.994141 0.549909,-0.63443 0.8125,-1.161553 0.8125,-2.130859 0,-0.969309 -0.262591,-1.496427 -0.8125,-2.130859 -0.30746,-0.354717 -0.743196,-0.717594 -1.238282,-1.089844 0.176151,-0.121636 0.317202,-0.232713 0.507813,-0.359375 0.833839,-0.554091 1.839035,-1.201756 2.798828,-2.021484 z m -5.087891,3.802734 h 2.427735 c 0.02972,0.03197 0.07042,0.06623 0.09766,0.09766 0.363725,0.419631 0.54894,0.724641 0.617188,1.210938 h -3.859376 c 0.06825,-0.486304 0.255413,-0.791304 0.619141,-1.210938 0.02724,-0.03142 0.06793,-0.06569 0.09766,-0.09766 z m -0.716797,2.289063 h 3.861329 c -0.06804,0.487307 -0.254988,0.792765 -0.619141,1.21289 -0.02669,0.03079 -0.06662,0.06439 -0.0957,0.0957 h -2.431641 c -0.02908,-0.03131 -0.06901,-0.06491 -0.0957,-0.0957 -0.364126,-0.420094 -0.551086,-0.725649 -0.619141,-1.21289 z m 5.919922,5.873046 c 0.114996,0.106716 0.233461,0.202775 0.345704,0.316407 1.103226,1.11688 2.035172,2.683862 2.203124,4.603515 a 1.9635418,1.9635418 0 0 1 -1.785156,2.126953 1.9635418,1.9635418 0 0 1 -0.191406,0.0078 1.9635418,1.9635418 0 0 1 -1.935547,-1.792969 c -0.08218,-0.939259 -0.422214,-1.515587 -1.083984,-2.185547 -0.23973,-0.242695 -0.535992,-0.485027 -0.855469,-0.728515 0.356204,-0.246201 0.715437,-0.489587 1.136719,-0.769532 0.690903,-0.459109 1.436142,-0.96641 2.166015,-1.578125 z m -4.552734,3.29097 h 1.126953 c 0.483768,0.416616 0.855397,0.837106 1.105469,1.308594 h -3.337891 c 0.250072,-0.471488 0.621701,-0.891978 1.105469,-1.308594 z" />

</svg>
