<?xml version="1.0" encoding="UTF-8" standalone="no"?>
<svg
   xmlns:dc="http://purl.org/dc/elements/1.1/"
   xmlns:cc="http://creativecommons.org/ns#"
   xmlns:rdf="http://www.w3.org/1999/02/22-rdf-syntax-ns#"
   xmlns:svg="http://www.w3.org/2000/svg"
   xmlns="http://www.w3.org/2000/svg"
   xmlns:sodipodi="http://sodipodi.sourceforge.net/DTD/sodipodi-0.dtd"
   xmlns:inkscape="http://www.inkscape.org/namespaces/inkscape"
   inkscape:version="1.0beta1 (32d4812, 2019-09-19)"
   sodipodi:docname="query-w.svg"
   version="1.1"
   id="svg5374"
   xml:space="preserve"
   width="64.426666"
   height="64.426666"
   viewBox="0 0 64.426666 64.426666"><sodipodi:namedview
   inkscape:current-layer="svg5374"
   inkscape:window-maximized="0"
   inkscape:window-y="23"
   inkscape:window-x="0"
   inkscape:cy="29.814297"
   inkscape:cx="25.919698"
   inkscape:zoom="9.5471389"
   showgrid="false"
   id="namedview5640"
   inkscape:window-height="907"
   inkscape:window-width="1600"
   inkscape:pageshadow="2"
   inkscape:pageopacity="0"
   guidetolerance="10"
   gridtolerance="10"
   objecttolerance="10"
   borderopacity="1"
   inkscape:document-rotation="0"
   bordercolor="#666666"
   pagecolor="#ffffff" />

  <metadata
   id="metadata5380">
    <rdf:RDF>
      <cc:Work
   rdf:about="">
        <dc:format>image/svg+xml</dc:format>

        <dc:type
   rdf:resource="http://purl.org/dc/dcmitype/StillImage" />

        <dc:title />

      </cc:Work>

    </rdf:RDF>

  </metadata>

  <defs
   id="defs5378">
    <clipPath
   clipPathUnits="userSpaceOnUse"
   id="clipPath5402">
      <path
   d="m 7.32265,-15.69136 c 0,5.00716 -4.05899,9.06615 -9.06613,9.06615 -5.00715,0 -9.06614,-4.05899 -9.06614,-9.06615 0,-5.00714 4.05899,-9.06613 9.06614,-9.06613 5.00714,0 9.06613,4.05899 9.06613,9.06613 z"
   id="path5400" />

    </clipPath>

  </defs>

  <g
   id="g5382"
   transform="matrix(1.3333333,0,0,-1.3333333,0,64.426667)">
    <g
   id="g5384"
   transform="translate(72,-23.681)">
      <g
   id="g5386"
   transform="translate(-47.841,65.275)">
        <g
   id="g5388">
          <g
   id="g5390">
            <g
   id="g5392">
              <g
   id="g5544"
   style="opacity:1">
                
                <path
   style="color:#000000;font-style:normal;font-variant:normal;font-weight:normal;font-stretch:normal;font-size:medium;line-height:normal;font-family:sans-serif;font-variant-ligatures:normal;font-variant-position:normal;font-variant-caps:normal;font-variant-numeric:normal;font-variant-alternates:normal;font-variant-east-asian:normal;font-feature-settings:normal;font-variation-settings:normal;text-indent:0;text-align:start;text-decoration:none;text-decoration-line:none;text-decoration-style:solid;text-decoration-color:#000000;letter-spacing:normal;word-spacing:normal;text-transform:none;writing-mode:lr-tb;direction:ltr;text-orientation:mixed;dominant-baseline:auto;baseline-shift:baseline;text-anchor:start;white-space:normal;shape-padding:0;shape-margin:0;inline-size:0;clip-rule:nonzero;display:inline;overflow:visible;visibility:visible;isolation:auto;mix-blend-mode:normal;color-interpolation:sRGB;color-interpolation-filters:linearRGB;solid-color:#000000;solid-opacity:1;vector-effect:none;fill:#283891;fill-opacity:1;fill-rule:nonzero;stroke:none;stroke-width:2.98883;stroke-linecap:butt;stroke-linejoin:miter;stroke-miterlimit:10;stroke-dasharray:none;stroke-dashoffset:0;stroke-opacity:1.0;filter-blend-mode:normal;filter-gaussianBlur-deviation:0;color-rendering:auto;image-rendering:auto;shape-rendering:auto;text-rendering:auto;enable-background:accumulate;stop-color:#000000;stop-opacity:1;"
   d="M -12.703125 -41.59375 C -19.013096 -41.59375 -24.160156 -36.44669 -24.160156 -30.136719 L -24.160156 -4.7324219 C -24.160156 1.577549 -19.013096 6.7246094 -12.703125 6.7246094 L 12.703125 6.7246094 C 19.013096 6.7246094 24.160156 1.577549 24.160156 -4.7324219 L 24.160156 -30.136719 C 24.160156 -36.44669 19.013096 -41.59375 12.703125 -41.59375 L -12.703125 -41.59375 z M -12.703125 -38.605469 L 12.703125 -38.605469 C 17.397854 -38.605469 21.169922 -34.831448 21.169922 -30.136719 L 21.169922 -4.7324219 C 21.169922 -0.03769271 17.397854 3.7363281 12.703125 3.7363281 L -12.703125 3.7363281 C -17.397854 3.7363281 -21.169922 -0.03769271 -21.169922 -4.7324219 L -21.169922 -30.136719 C -21.169922 -34.831448 -17.397854 -38.605469 -12.703125 -38.605469 z "
   id="path5548" />

              </g>

            </g>

            <g
   id="g5396">
              <g
   id="g5398"
   clip-path="url(#clipPath5402)">
                <g
   id="g5404">
                  <g
   id="g5406">
                    <g
   id="g5408"
   transform="scale(-1)">
                      <g
   id="g5410" />

                      <g
   id="g5412"
   transform="rotate(180,-23.9205,32.6375)">
                        <g
   id="g5414" />

                        <g
   id="g5416"
   transform="translate(-7.2,-29.415)">
                          <g
   id="g5418"
   transform="matrix(0.65698,0,0,0.65698,-16.41,22.391)">
                            <g
   id="g5420"
   transform="translate(-36.882,104.13)">
                              <g
   id="g5422">
                                <g
   id="g5424">
                                <g
   id="g5426" />

                                <g
   id="g5430">
                                <path
   id="path5509"
   style="color:#000000;font-style:normal;font-variant:normal;font-weight:normal;font-stretch:normal;font-size:medium;line-height:normal;font-family:sans-serif;font-variant-ligatures:normal;font-variant-position:normal;font-variant-caps:normal;font-variant-numeric:normal;font-variant-alternates:normal;font-variant-east-asian:normal;font-feature-settings:normal;font-variation-settings:normal;text-indent:0;text-align:start;text-decoration:none;text-decoration-line:none;text-decoration-style:solid;text-decoration-color:#000000;letter-spacing:normal;word-spacing:normal;text-transform:none;writing-mode:lr-tb;direction:ltr;text-orientation:mixed;dominant-baseline:auto;baseline-shift:baseline;text-anchor:start;white-space:normal;shape-padding:0;shape-margin:0;inline-size:0;clip-rule:nonzero;display:inline;overflow:visible;visibility:visible;opacity:1;isolation:auto;mix-blend-mode:normal;color-interpolation:sRGB;color-interpolation-filters:linearRGB;solid-color:#000000;solid-opacity:1;vector-effect:none;fill:#283891;fill-opacity:1;fill-rule:nonzero;stroke:none;stroke-width:1.74542;stroke-linecap:butt;stroke-linejoin:miter;stroke-miterlimit:10;stroke-dasharray:none;stroke-dashoffset:0;stroke-opacity:1;color-rendering:auto;image-rendering:auto;shape-rendering:auto;text-rendering:auto;enable-background:accumulate;stop-color:#000000;stop-opacity:1"
   transform="matrix(1.1415873,0,0,-1.1415873,-36.77321,16.155247)"
   d="m 26.054688,11.533203 a 2.6181354,2.6181354 0 0 0 -0.40625,0.04102 2.6181354,2.6181354 0 0 0 -2.123047,3.033203 c 0.477542,2.708334 1.895155,4.655339 3.539062,6.185547 0.917912,-0.749963 1.85012,-1.38112 2.716797,-1.957031 0.627073,-0.416697 1.17269,-0.784189 1.691406,-1.146485 -1.481971,-1.148811 -2.494333,-2.309582 -2.791015,-3.992187 a 2.6181354,2.6181354 0 0 0 -2.626953,-2.164063 z m 12.285156,0 a 2.6181354,2.6181354 0 0 0 -2.595703,2.164063 c -0.452419,2.565847 -2.54653,3.916914 -5.478516,5.865234 -1.465993,0.97416 -3.067982,2.034313 -4.417969,3.591797 -1.349986,1.557483 -2.363281,3.735381 -2.363281,6.269531 0,2.571888 1.091554,4.769095 2.501953,6.310547 0.362238,0.395897 0.741285,0.757156 1.128906,1.09375 1.258166,-1.064013 2.572964,-1.905817 3.664063,-2.630859 0.295551,-0.196396 0.517923,-0.369434 0.787109,-0.556641 -0.683886,-0.492816 -1.287603,-0.972333 -1.716797,-1.441406 -0.776245,-0.848373 -1.126953,-1.520682 -1.126953,-2.775391 0,-1.292451 0.346844,-1.995861 1.080078,-2.841797 0.733235,-0.845934 1.938947,-1.713023 3.361328,-2.658203 2.844765,-1.890359 6.8598,-4.345265 7.736329,-9.316406 a 2.6181354,2.6181354 0 0 0 -2.125,-3.033203 2.6181354,2.6181354 0 0 0 -0.435547,-0.04102 z m -0.958985,10.419922 c -1.280402,1.093875 -2.621938,1.958045 -3.734375,2.697266 -0.254045,0.168814 -0.442953,0.316397 -0.677734,0.478515 0.660576,0.496434 1.242163,0.979899 1.652344,1.453125 0.733234,0.845936 1.082031,1.549346 1.082031,2.841797 0,1.292448 -0.348796,1.995863 -1.082031,2.841797 -0.733235,0.845935 -1.936994,1.713022 -3.359375,2.658203 -2.844763,1.890362 -6.8598,4.347216 -7.736328,9.31836 a 2.6181354,2.6181354 0 0 0 2.123047,3.03125 2.6181354,2.6181354 0 0 0 0.416015,0.04102 2.6181354,2.6181354 0 0 0 2.617188,-2.164062 c 0.452419,-2.565853 2.54653,-3.916913 5.478515,-5.865235 1.465993,-0.97416 3.066029,-2.034313 4.416016,-3.591797 1.349986,-1.557483 2.363281,-3.735382 2.363281,-6.269531 A 2.6181354,2.6181354 0 0 0 40.927734,29.1875 c -0.06144,-2.431879 -1.04429,-4.525001 -2.351562,-6.033203 -0.380739,-0.439259 -0.783412,-0.831802 -1.195313,-1.201172 z m -6.785156,5.070313 c -0.04047,0.04347 -0.09579,0.0901 -0.132812,0.132812 -0.484992,0.559536 -0.733225,0.964842 -0.824219,1.613281 h 5.148437 c -0.09099,-0.648444 -0.341178,-1.053743 -0.826171,-1.613281 -0.03703,-0.04271 -0.09235,-0.08935 -0.132813,-0.132812 z m -0.957031,3.054687 c 0.0908,0.64938 0.338829,1.055239 0.824219,1.615234 0.03648,0.04208 0.09104,0.08806 0.130859,0.13086 h 3.236328 c 0.03982,-0.0428 0.09438,-0.08878 0.13086,-0.13086 0.485391,-0.559998 0.73537,-0.965849 0.826171,-1.615234 z m 7.892578,7.830078 c -0.973235,0.815694 -1.967399,1.491325 -2.888672,2.103516 -0.561409,0.37306 -1.038937,0.699233 -1.513672,1.027343 0.425409,0.324483 0.821453,0.647582 1.140625,0.970704 0.882388,0.893306 1.333785,1.663632 1.44336,2.916015 a 2.6181354,2.6181354 0 0 0 2.582031,2.388672 2.6181354,2.6181354 0 0 0 0.253906,-0.0098 2.6181354,2.6181354 0 0 0 2.38086,-2.835938 c -0.22395,-2.559616 -1.46453,-4.649452 -2.935547,-6.138672 -0.149952,-0.151807 -0.309209,-0.279326 -0.462891,-0.421875 z" />

                                </g>

                                <g
   id="g5434" />

                                <g
   id="g5438" />

                                <g
   id="g5442" />

                                <g
   id="g5446" />

                                <g
   id="g5450" />

                                <g
   id="g5454" />

                                <g
   id="g5458" />

                                <g
   id="g5462" />

                                </g>

                              </g>

                            </g>

                          </g>

                        </g>

                        <g
   id="g5466"
   transform="translate(-47.841,65.275)" />

                      </g>

                    </g>

                  </g>

                </g>

              </g>

            </g>

            <g
   id="g5468">
              <path
   id="path5532"
   style="color:#000000;font-style:normal;font-variant:normal;font-weight:normal;font-stretch:normal;font-size:medium;line-height:normal;font-family:sans-serif;font-variant-ligatures:normal;font-variant-position:normal;font-variant-caps:normal;font-variant-numeric:normal;font-variant-alternates:normal;font-variant-east-asian:normal;font-feature-settings:normal;font-variation-settings:normal;text-indent:0;text-align:start;text-decoration:none;text-decoration-line:none;text-decoration-style:solid;text-decoration-color:#000000;letter-spacing:normal;word-spacing:normal;text-transform:none;writing-mode:lr-tb;direction:ltr;text-orientation:mixed;dominant-baseline:auto;baseline-shift:baseline;text-anchor:start;white-space:normal;shape-padding:0;shape-margin:0;inline-size:0;clip-rule:nonzero;display:inline;overflow:visible;visibility:visible;opacity:1;isolation:auto;mix-blend-mode:normal;color-interpolation:sRGB;color-interpolation-filters:linearRGB;solid-color:#000000;solid-opacity:1;vector-effect:none;fill:#283891;fill-opacity:1;fill-rule:nonzero;stroke:none;stroke-width:5.31347;stroke-linecap:butt;stroke-linejoin:miter;stroke-miterlimit:10;stroke-dasharray:none;stroke-dashoffset:0;stroke-opacity:1;color-rendering:auto;image-rendering:auto;shape-rendering:auto;text-rendering:auto;enable-background:accumulate;stop-color:#000000;stop-opacity:1"
   d="M 29.886719 10.960938 C 19.463782 10.960938 10.957031 19.467672 10.957031 29.890625 C 10.957031 40.313557 19.463776 48.820312 29.886719 48.820312 C 33.981062 48.820312 37.769557 47.493411 40.873047 45.267578 C 40.991206 45.627549 41.176899 45.968895 41.445312 46.261719 L 48.083984 53.501953 C 49.075398 54.58354 50.720293 54.619551 51.757812 53.582031 L 52.650391 52.689453 C 53.687924 51.651933 53.651872 50.007038 52.570312 49.015625 L 45.328125 42.378906 C 45.085352 42.156368 44.807627 41.992236 44.515625 41.873047 C 47.198981 38.604787 48.816406 34.430687 48.816406 29.890625 C 48.816406 19.467675 40.309644 10.960938 29.886719 10.960938 z M 29.886719 16.275391 C 37.438113 16.27539 43.503906 22.339204 43.503906 29.890625 C 43.503906 37.442017 37.438107 43.503906 29.886719 43.503906 C 22.335315 43.503906 16.271484 37.442014 16.271484 29.890625 C 16.271484 22.339205 22.335309 16.27539 29.886719 16.275391 z "
   transform="matrix(0.75000002,0,0,-0.75000002,-24.159,6.7260015)" />

            </g>

            <g
   id="g5472" />

          </g>

        </g>

      </g>

    </g>

  </g>

</svg>
